<?xml version="1.0" encoding="utf-8"?>
<!-- Generator: Adobe Illustrator 23.0.1, SVG Export Plug-In . SVG Version: 6.00 Build 0)  -->
<svg version="1.1" id="Calque_1" xmlns="http://www.w3.org/2000/svg" xmlns:xlink="http://www.w3.org/1999/xlink" x="0px" y="0px"
	 viewBox="0 0 700 600" style="enable-background:new 0 0 700 600;" xml:space="preserve">
<style type="text/css">
	.st0{fill:none;stroke:#000000;stroke-width:0.5;stroke-miterlimit:10;}
	.st1{fill:none;stroke:#00ABEF;stroke-width:0.5;stroke-miterlimit:10;}
	.st2{fill:#EFE9E3;}
	.st3{clip-path:url(#SVGID_2_);}
	.st4{opacity:0.1;}
	.st5{stroke:#000000;stroke-width:0.5;stroke-linecap:round;stroke-linejoin:round;stroke-miterlimit:10;}
	.st6{stroke:#000000;stroke-width:0.75;stroke-linecap:round;stroke-linejoin:round;stroke-miterlimit:10;}
	.st7{fill:#FFB300;stroke:#004269;stroke-width:0.5;stroke-linecap:round;stroke-linejoin:round;stroke-miterlimit:10;}
	.st8{fill:#004269;stroke:#004269;stroke-width:0.75;stroke-linecap:round;stroke-linejoin:round;stroke-miterlimit:10;}
	.st9{fill:none;stroke:#000000;stroke-width:0.25;stroke-linecap:round;stroke-linejoin:round;stroke-miterlimit:10;}
	.st10{fill:none;stroke:#000000;stroke-width:0.5;stroke-linecap:round;stroke-linejoin:round;stroke-miterlimit:10;}
	.st11{fill:#F6F2EF;stroke:#004269;stroke-width:0.5;stroke-linecap:round;stroke-linejoin:round;stroke-miterlimit:10;}
	.st12{fill:none;stroke:#004269;stroke-width:0.25;stroke-linecap:round;stroke-linejoin:round;stroke-miterlimit:10;}
	.st13{fill:none;stroke:#004269;stroke-width:0.5;stroke-linecap:round;stroke-linejoin:round;stroke-miterlimit:10;}
	.st14{fill:#004269;stroke:#004269;stroke-width:0.5;stroke-linecap:round;stroke-linejoin:round;stroke-miterlimit:10;}
	.st15{fill:#00ABEF;stroke:#004269;stroke-width:0.5;stroke-linecap:round;stroke-linejoin:round;stroke-miterlimit:10;}
	.st16{fill:#FFFFFF;}
	.st17{clip-path:url(#SVGID_6_);stroke:#000000;stroke-width:0.25;stroke-miterlimit:10;}
	
		.st18{clip-path:url(#SVGID_6_);stroke:#000000;stroke-width:0.25;stroke-linecap:round;stroke-linejoin:round;stroke-miterlimit:10;}
	
		.st19{clip-path:url(#SVGID_6_);fill:none;stroke:#000000;stroke-width:0.25;stroke-linecap:round;stroke-linejoin:round;stroke-miterlimit:10;}
	.st20{clip-path:url(#SVGID_6_);}
	.st21{clip-path:url(#SVGID_12_);}
	.st22{fill:#FF8C4D;stroke:#004269;stroke-width:0.25;stroke-miterlimit:10;}
	.st23{fill:#00ABEF;stroke:#004269;stroke-width:0.25;stroke-linecap:round;stroke-linejoin:round;stroke-miterlimit:10;}
	.st24{fill:#004269;stroke:#004269;stroke-width:0.25;stroke-linecap:round;stroke-linejoin:round;stroke-miterlimit:10;}
	.st25{fill:#FFD3BA;stroke:#004269;stroke-width:0.25;stroke-miterlimit:10;}
	.st26{fill:#FFD3BA;stroke:#004269;stroke-width:0.25;stroke-linecap:round;stroke-linejoin:round;stroke-miterlimit:10;}
	.st27{fill:#FFFFFF;stroke:#004269;stroke-width:0.25;stroke-linecap:round;stroke-linejoin:round;stroke-miterlimit:10;}
	.st28{fill:#004269;}
	.st29{fill:#FFC5A6;}
	
		.st30{clip-path:url(#SVGID_18_);stroke:#000000;stroke-width:0.25;stroke-linecap:round;stroke-linejoin:round;stroke-miterlimit:10;}
	.st31{clip-path:url(#SVGID_18_);stroke:#000000;stroke-width:0.25;stroke-miterlimit:10;}
	
		.st32{clip-path:url(#SVGID_18_);fill:none;stroke:#000000;stroke-width:0.25;stroke-linecap:round;stroke-linejoin:round;stroke-miterlimit:10;}
	.st33{clip-path:url(#SVGID_18_);}
	.st34{clip-path:url(#SVGID_24_);}
	.st35{fill:#FFD9C4;stroke:#004269;stroke-width:0.25;stroke-miterlimit:10;}
	.st36{fill:#FFD9C4;stroke:#004269;stroke-width:0.25;stroke-linecap:round;stroke-linejoin:round;stroke-miterlimit:10;}
	.st37{fill:#FFB300;stroke:#004269;stroke-width:0.25;stroke-linecap:round;stroke-linejoin:round;stroke-miterlimit:10;}
	.st38{fill:none;stroke:#F6F2EF;stroke-width:0.25;stroke-linecap:round;stroke-linejoin:round;stroke-miterlimit:10;}
	
		.st39{clip-path:url(#SVGID_30_);stroke:#000000;stroke-width:0.25;stroke-linecap:round;stroke-linejoin:round;stroke-miterlimit:10;}
	.st40{clip-path:url(#SVGID_30_);stroke:#000000;stroke-width:0.25;stroke-miterlimit:10;}
	
		.st41{clip-path:url(#SVGID_30_);fill:none;stroke:#000000;stroke-width:0.25;stroke-linecap:round;stroke-linejoin:round;stroke-miterlimit:10;}
	.st42{clip-path:url(#SVGID_30_);}
	.st43{clip-path:url(#SVGID_36_);}
	.st44{fill:#F6F2EF;stroke:#004269;stroke-width:0.25;stroke-linecap:round;stroke-linejoin:round;stroke-miterlimit:10;}
	.st45{fill:#FFCCB0;stroke:#004269;stroke-width:0.25;stroke-miterlimit:10;}
	.st46{fill:none;stroke:#000000;stroke-width:0.5883;stroke-linecap:round;stroke-linejoin:round;stroke-miterlimit:10;}
	.st47{clip-path:url(#SVGID_42_);stroke:#000000;stroke-width:0.25;stroke-miterlimit:10;}
	
		.st48{clip-path:url(#SVGID_42_);stroke:#000000;stroke-width:0.25;stroke-linecap:round;stroke-linejoin:round;stroke-miterlimit:10;}
	
		.st49{clip-path:url(#SVGID_42_);fill:none;stroke:#000000;stroke-width:0.25;stroke-linecap:round;stroke-linejoin:round;stroke-miterlimit:10;}
	.st50{clip-path:url(#SVGID_42_);}
	.st51{fill:none;stroke:#F6F2EF;stroke-width:0.5883;stroke-linecap:round;stroke-linejoin:round;stroke-miterlimit:10;}
	.st52{clip-path:url(#SVGID_48_);}
	.st53{fill:#004269;stroke:#004269;stroke-width:0.25;stroke-miterlimit:10;}
	.st54{fill:#C49B80;stroke:#004269;stroke-width:0.25;stroke-linecap:round;stroke-linejoin:round;stroke-miterlimit:10;}
	.st55{clip-path:url(#SVGID_54_);stroke:#000000;stroke-width:0.25;stroke-miterlimit:10;}
	.st56{clip-path:url(#SVGID_54_);fill:none;stroke:#000000;stroke-width:0.25;stroke-miterlimit:10;}
	.st57{clip-path:url(#SVGID_60_);}
	.st58{fill:#004269;stroke:#000000;stroke-width:0.25;stroke-miterlimit:10;}
	.st59{fill:#FFFFFF;stroke:#000000;stroke-width:0.25;stroke-miterlimit:10;}
	.st60{fill:#C49B80;stroke:#000000;stroke-width:0.25;stroke-miterlimit:10;}
	.st61{fill:none;stroke:#000000;stroke-width:0.25;stroke-miterlimit:10;}
	.st62{fill:#FF8C4D;stroke:#000000;stroke-width:0.25;stroke-miterlimit:10;}
	.st63{clip-path:url(#SVGID_66_);stroke:#000000;stroke-width:0.25;stroke-miterlimit:10;}
	
		.st64{clip-path:url(#SVGID_66_);stroke:#000000;stroke-width:0.25;stroke-linecap:round;stroke-linejoin:round;stroke-miterlimit:10;}
	
		.st65{clip-path:url(#SVGID_66_);fill:none;stroke:#000000;stroke-width:0.25;stroke-linecap:round;stroke-linejoin:round;stroke-miterlimit:10;}
	.st66{clip-path:url(#SVGID_66_);}
	.st67{clip-path:url(#SVGID_72_);}
	.st68{fill:#FFBD99;stroke:#004269;stroke-width:0.25;stroke-linecap:round;stroke-linejoin:round;stroke-miterlimit:10;}
	.st69{clip-path:url(#SVGID_78_);stroke:#000000;stroke-width:0.25;stroke-miterlimit:10;}
	.st70{clip-path:url(#SVGID_78_);fill:none;stroke:#000000;stroke-width:0.25;stroke-miterlimit:10;}
	.st71{clip-path:url(#SVGID_84_);}
	.st72{fill:#FFBD99;stroke:#000000;stroke-width:0.25;stroke-miterlimit:10;}
	.st73{fill:#00ABEF;stroke:#000000;stroke-width:0.25;stroke-miterlimit:10;}
	.st74{clip-path:url(#SVGID_90_);stroke:#000000;stroke-width:0.25;stroke-miterlimit:10;}
	.st75{clip-path:url(#SVGID_90_);fill:none;stroke:#000000;stroke-width:0.25;stroke-miterlimit:10;}
	.st76{clip-path:url(#SVGID_96_);}
	.st77{fill:#F6F2EF;stroke:#000000;stroke-width:0.25;stroke-miterlimit:10;}
	.st78{fill:#FFB300;stroke:#000000;stroke-width:0.25;stroke-miterlimit:10;}
</style>
<g>
	<path class="st0" d="M303.5,268.02c-25.88,4.11-55.29-0.99-81.99-14.21c-24.15-11.96-45.52-30-65.21-48.93
		s-38.18-39.07-58.89-56.94c-7.22-6.22-14.91-12.29-23.53-15.72c-8.06-3.21-16.45-3.9-24.33-3.43c-7.36,0.43-14.54,1.88-20.38,5.27
		c-10.51,6.1-16.69,18.34-29.6,20.13"/>
	<path class="st0" d="M551,6c-35.88,8.33-65.68,26.39-83.09,50.36c-15.75,21.68-21.31,47.44-23.85,73.2s-2.26,52.04-7.23,77.35
		c-1.73,8.81-4.22,17.71-10.78,24.7c-6.14,6.55-15.49,11.03-25.54,14.25c-9.38,3.01-19.67,5.05-30.53,4.77
		c-19.55-0.52-40.75-8.46-58.36-4.08"/>
	<path class="st1" d="M701,124.32c-11.95,30.42-36.01,58.81-67.09,79.15c-28.11,18.4-60.99,29.96-93.78,39.15
		s-66.1,16.33-98.39,27.3c-11.25,3.82-22.62,8.25-31.75,15.35c-8.54,6.64-14.58,15.21-19.07,23.98c-4.19,8.19-7.17,16.82-7.22,25.24
		c-0.1,15.16,9.15,29.54,2.92,44.55"/>
	<path class="st1" d="M171.22,27c1.34,34.54,11.44,63.86,28.16,81.75c15.13,16.18,35.07,22.91,55.48,26.78
		c20.41,3.86,41.64,5.08,61.31,11.23c6.85,2.14,13.65,5,18.31,11.63c4.36,6.2,6.57,15.33,7.67,25.05
		c1.03,9.08,1.13,18.96-0.73,29.26c-3.35,18.53-12.93,38.22-12.04,55.19"/>
	<path class="st2" d="M312.05,289.04c-27.33-21.2-66.72-32.47-101.24-32.4c-29.35,0.06-59.02,9.06-81.92,27.43
		c-22.73,18.24-45.85,53.77-36.93,83.99c6.37,21.58,23.79,38.84,44.22,48.24c28.18,12.96,62.91,13.28,92.83,7.22
		c24.58-4.98,47.39-13.54,67.41-29.29c14.37-11.31,26.29-26.3,31.62-43.81C334.57,328.99,330.32,303.21,312.05,289.04z"/>
	<path class="st2" d="M440.07,216.05c9.27,13.77,14.91,30.22,16.11,46.82c2.03,28.15-7.73,54.19-22.25,77.79
		c-6.48,10.54-10.79,21.31-18.42,31.47c-8.79,11.71-18.49,22.71-28.57,33.32c-16.31,17.18-34.02,33.65-55.37,43.9
		s-47.02,13.61-68.76,4.21c-24.77-10.71-40.49-36.02-47.93-61.97c-12.54-43.76-5.03-95.24,21.37-132.35
		c26.33-37.02,69.96-70.09,115.34-78.02c19.1-3.34,39.39-1.73,56.83,6.76C421.34,194.26,432.06,204.15,440.07,216.05z"/>
	<path class="st2" d="M583.99,364.56c-0.44-32.77-28.23-58.91-55.56-74.03c-27.09-14.99-57.85-18.52-88.26-16.79
		c-19.69,1.12-39.49,3.73-57.96,10.65c-18.47,6.92-35.63,18.44-46.77,34.72c-11.14,16.28-15.64,37.62-9.4,56.33
		c7.47,22.42,28.37,37.56,49.54,48.04c29.99,14.86,63.04,23.51,96.47,25.25c28.17,1.47,58.07-2.53,80.52-19.63
		C572.31,414.06,584.32,389.38,583.99,364.56z"/>
	<g>
		<defs>
			<rect id="SVGID_1_" x="99" y="213" width="460.24" height="195.09"/>
		</defs>
		<clipPath id="SVGID_2_">
			<use xlink:href="#SVGID_1_"  style="overflow:visible;"/>
		</clipPath>
		<g class="st3">
			<g class="st4">
				<path class="st5" d="M301.44,417.76h-59.28V312.92c0-6.11,4.95-11.06,11.06-11.06h37.16c6.11,0,11.06,4.95,11.06,11.06V417.76z"
					/>
				<rect x="259.15" y="396.9" class="st6" width="25.29" height="20.86"/>
				<rect x="288.27" y="355.74" class="st5" width="4.78" height="10.74"/>
				<rect x="278.84" y="355.74" class="st5" width="4.78" height="10.74"/>
				<rect x="269.41" y="355.74" class="st5" width="4.78" height="10.74"/>
				<rect x="259.97" y="355.74" class="st5" width="4.78" height="10.74"/>
				<rect x="250.54" y="355.74" class="st5" width="4.78" height="10.74"/>
				<rect x="288.27" y="326.33" class="st5" width="4.78" height="15.53"/>
				<rect x="278.84" y="326.33" class="st5" width="4.78" height="15.53"/>
				<rect x="269.41" y="326.33" class="st5" width="4.78" height="15.53"/>
				<rect x="259.97" y="326.33" class="st5" width="4.78" height="15.53"/>
				<rect x="250.54" y="326.33" class="st5" width="4.78" height="15.53"/>
				<rect x="288.27" y="374.27" class="st5" width="4.78" height="15.53"/>
				<rect x="278.84" y="374.27" class="st5" width="4.78" height="15.53"/>
				<rect x="269.41" y="374.27" class="st5" width="4.78" height="15.53"/>
				<rect x="259.97" y="374.27" class="st5" width="4.78" height="15.53"/>
				<rect x="250.54" y="374.27" class="st5" width="4.78" height="15.53"/>
			</g>
			<g>
				<g>
					<path class="st7" d="M291.44,407.76h-59.28V302.92c0-6.11,4.95-11.06,11.06-11.06h37.16c6.11,0,11.06,4.95,11.06,11.06V407.76z
						"/>
					<rect x="249.15" y="386.9" class="st8" width="25.29" height="20.86"/>
					<g>
						<rect x="278.27" y="345.74" class="st7" width="4.78" height="10.74"/>
						<rect x="268.84" y="345.74" class="st7" width="4.78" height="10.74"/>
						<rect x="259.41" y="345.74" class="st7" width="4.78" height="10.74"/>
						<rect x="249.97" y="345.74" class="st7" width="4.78" height="10.74"/>
						<rect x="240.54" y="345.74" class="st7" width="4.78" height="10.74"/>
					</g>
					<g>
						<rect x="278.27" y="316.33" class="st7" width="4.78" height="15.53"/>
						<rect x="268.84" y="316.33" class="st7" width="4.78" height="15.53"/>
						<rect x="259.41" y="316.33" class="st7" width="4.78" height="15.53"/>
						<rect x="249.97" y="316.33" class="st7" width="4.78" height="15.53"/>
						<rect x="240.54" y="316.33" class="st7" width="4.78" height="15.53"/>
					</g>
					<g>
						<rect x="278.27" y="364.27" class="st7" width="4.78" height="15.53"/>
						<rect x="268.84" y="364.27" class="st7" width="4.78" height="15.53"/>
						<rect x="259.41" y="364.27" class="st7" width="4.78" height="15.53"/>
						<rect x="249.97" y="364.27" class="st7" width="4.78" height="15.53"/>
						<rect x="240.54" y="364.27" class="st7" width="4.78" height="15.53"/>
					</g>
				</g>
			</g>
		</g>
		<g class="st3">
			<g class="st4">
				<rect x="340.42" y="279.47" class="st5" width="80.75" height="138.29"/>
				<rect x="388.36" y="396.9" class="st9" width="25.93" height="20.86"/>
				<rect x="347.29" y="396.9" class="st9" width="33.5" height="10.43"/>
				<rect x="347.29" y="374.27" class="st10" width="14.02" height="14.03"/>
				<rect x="360.54" y="374.27" class="st10" width="14.02" height="14.03"/>
				<rect x="373.79" y="374.27" class="st10" width="14.02" height="14.03"/>
				<rect x="387.03" y="374.27" class="st10" width="14.02" height="14.03"/>
				<rect x="400.28" y="374.27" class="st10" width="14.02" height="14.03"/>
				<rect x="347.29" y="352.66" class="st10" width="14.02" height="14.03"/>
				<rect x="360.54" y="352.66" class="st10" width="14.02" height="14.03"/>
				<rect x="373.79" y="352.66" class="st10" width="14.02" height="14.03"/>
				<rect x="387.03" y="352.66" class="st10" width="14.02" height="14.03"/>
				<rect x="400.28" y="352.66" class="st10" width="14.02" height="14.03"/>
				<rect x="347.29" y="331.05" class="st10" width="14.02" height="14.03"/>
				<rect x="360.54" y="331.05" class="st10" width="14.02" height="14.03"/>
				<rect x="373.79" y="331.05" class="st10" width="14.02" height="14.03"/>
				<rect x="387.03" y="331.05" class="st10" width="14.02" height="14.03"/>
				<rect x="400.28" y="331.05" class="st10" width="14.02" height="14.03"/>
				<rect x="347.29" y="309.45" class="st10" width="14.02" height="14.03"/>
				<rect x="360.54" y="309.45" class="st10" width="14.02" height="14.03"/>
				<rect x="373.79" y="309.45" class="st10" width="14.02" height="14.03"/>
				<rect x="387.03" y="309.45" class="st10" width="14.02" height="14.03"/>
				<rect x="400.28" y="309.45" class="st10" width="14.02" height="14.03"/>
				<rect x="347.29" y="287.84" class="st10" width="14.02" height="14.03"/>
				<rect x="360.54" y="287.84" class="st10" width="14.02" height="14.03"/>
				<rect x="373.79" y="287.84" class="st10" width="14.02" height="14.03"/>
				<rect x="387.03" y="287.84" class="st10" width="14.02" height="14.03"/>
				<rect x="400.28" y="287.84" class="st10" width="14.02" height="14.03"/>
				<rect x="340.42" y="271.05" class="st6" width="80.75" height="8.42"/>
			</g>
			<g>
				<g>
					<rect x="330.42" y="269.47" class="st11" width="80.75" height="138.29"/>
					<g>
						<rect x="378.36" y="386.9" class="st12" width="25.93" height="20.86"/>
						<rect x="337.29" y="386.9" class="st12" width="33.5" height="10.43"/>
					</g>
					<g>
						<rect x="337.29" y="364.27" class="st13" width="14.02" height="14.03"/>
						<rect x="350.54" y="364.27" class="st13" width="14.02" height="14.03"/>
						<rect x="363.79" y="364.27" class="st13" width="14.02" height="14.03"/>
						<rect x="377.03" y="364.27" class="st13" width="14.02" height="14.03"/>
						<rect x="390.28" y="364.27" class="st13" width="14.02" height="14.03"/>
					</g>
					<g>
						<rect x="337.29" y="342.66" class="st13" width="14.02" height="14.03"/>
						<rect x="350.54" y="342.66" class="st13" width="14.02" height="14.03"/>
						<rect x="363.79" y="342.66" class="st13" width="14.02" height="14.03"/>
						<rect x="377.03" y="342.66" class="st13" width="14.02" height="14.03"/>
						<rect x="390.28" y="342.66" class="st13" width="14.02" height="14.03"/>
					</g>
					<g>
						<rect x="337.29" y="321.05" class="st13" width="14.02" height="14.03"/>
						<rect x="350.54" y="321.05" class="st13" width="14.02" height="14.03"/>
						<rect x="363.79" y="321.05" class="st13" width="14.02" height="14.03"/>
						<rect x="377.03" y="321.05" class="st13" width="14.02" height="14.03"/>
						<rect x="390.28" y="321.05" class="st13" width="14.02" height="14.03"/>
					</g>
					<g>
						<rect x="337.29" y="299.45" class="st13" width="14.02" height="14.03"/>
						<rect x="350.54" y="299.45" class="st13" width="14.02" height="14.03"/>
						<rect x="363.79" y="299.45" class="st13" width="14.02" height="14.03"/>
						<rect x="377.03" y="299.45" class="st13" width="14.02" height="14.03"/>
						<rect x="390.28" y="299.45" class="st13" width="14.02" height="14.03"/>
					</g>
					<g>
						<rect x="337.29" y="277.84" class="st13" width="14.02" height="14.03"/>
						<rect x="350.54" y="277.84" class="st13" width="14.02" height="14.03"/>
						<rect x="363.79" y="277.84" class="st13" width="14.02" height="14.03"/>
						<rect x="377.03" y="277.84" class="st13" width="14.02" height="14.03"/>
						<rect x="390.28" y="277.84" class="st13" width="14.02" height="14.03"/>
					</g>
					<rect x="330.42" y="261.05" class="st8" width="80.75" height="8.42"/>
				</g>
			</g>
		</g>
		<g class="st3">
			<g class="st4">
				<path class="st5" d="M473.1,417.76h-59.28v-89.05c0-6.11,4.95-11.06,11.06-11.06h37.16c6.11,0,11.06,4.95,11.06,11.06V417.76z"
					/>
				<rect x="451.54" y="396.9" class="st5" width="14.73" height="20.86"/>
				<rect x="419.11" y="371.91" class="st5" width="47.17" height="15.83"/>
				<rect x="419.11" y="348.3" class="st5" width="47.17" height="15.83"/>
				<path class="st5" d="M437.73,342.01h9.92c1.63,0,2.95-1.32,2.95-2.95v-9.93c0-1.63-1.32-2.95-2.95-2.95h-9.92
					c-1.63,0-2.95,1.32-2.95,2.95v9.93C434.78,340.69,436.1,342.01,437.73,342.01z"/>
				<rect x="419.11" y="395.96" class="st5" width="27.04" height="15.83"/>
			</g>
			<g>
				<g>
					<path class="st7" d="M463.1,407.76h-59.28v-89.05c0-6.11,4.95-11.06,11.06-11.06h37.16c6.11,0,11.06,4.95,11.06,11.06V407.76z"
						/>
					<rect x="441.54" y="386.9" class="st14" width="14.73" height="20.86"/>
					<rect x="409.11" y="361.91" class="st11" width="47.17" height="15.83"/>
					<rect x="409.11" y="338.3" class="st11" width="47.17" height="15.83"/>
					<path class="st14" d="M427.73,332.01h9.92c1.63,0,2.95-1.32,2.95-2.95v-9.93c0-1.63-1.32-2.95-2.95-2.95h-9.92
						c-1.63,0-2.95,1.32-2.95,2.95v9.93C424.78,330.69,426.1,332.01,427.73,332.01z"/>
					<rect x="409.11" y="385.96" class="st11" width="27.04" height="15.83"/>
				</g>
			</g>
		</g>
		<g class="st3">
			<g class="st4">
				<rect x="362.74" y="343.16" class="st5" width="59.03" height="74.6"/>
				<rect x="374.64" y="396.9" class="st5" width="12.32" height="20.86"/>
				<rect x="394.01" y="396.9" class="st5" width="22.83" height="13.94"/>
				<rect x="397.21" y="371.91" class="st5" width="18.93" height="13.94"/>
				<rect x="368.39" y="371.91" class="st5" width="18.93" height="13.94"/>
				<rect x="397.21" y="350.56" class="st5" width="18.93" height="13.94"/>
				<rect x="368.39" y="350.56" class="st5" width="18.93" height="13.94"/>
				<line class="st10" x1="368.37" y1="390.9" x2="416.14" y2="390.9"/>
				<rect x="362.74" y="337.76" class="st6" width="59.03" height="5.4"/>
			</g>
			<g>
				<g>
					<rect x="352.74" y="333.16" class="st15" width="59.03" height="74.6"/>
					<rect x="364.64" y="386.9" class="st15" width="12.32" height="20.86"/>
					<rect x="384.01" y="386.9" class="st15" width="22.83" height="13.94"/>
					<rect x="387.21" y="361.91" class="st15" width="18.93" height="13.94"/>
					<rect x="358.39" y="361.91" class="st15" width="18.93" height="13.94"/>
					<rect x="387.21" y="340.56" class="st15" width="18.93" height="13.94"/>
					<rect x="358.39" y="340.56" class="st15" width="18.93" height="13.94"/>
					<line class="st13" x1="358.37" y1="380.9" x2="406.14" y2="380.9"/>
					<rect x="352.74" y="327.76" class="st8" width="59.03" height="5.4"/>
				</g>
			</g>
		</g>
		<g class="st3">
			<g class="st4">
				<path class="st5" d="M252.93,417.76h-75.36v-48.38c0-7.76,6.29-14.06,14.06-14.06h47.24c7.76,0,14.06,6.29,14.06,14.06V417.76z"
					/>
				<rect x="209.18" y="396.9" class="st5" width="12.16" height="20.86"/>
				<rect x="191.05" y="366.85" class="st5" width="46.75" height="6.33"/>
				<rect x="185.69" y="378.88" class="st5" width="59.78" height="8.09"/>
			</g>
			<g>
				<g>
					<path class="st14" d="M242.93,407.76h-75.36v-48.38c0-7.76,6.29-14.06,14.06-14.06h47.24c7.76,0,14.06,6.29,14.06,14.06V407.76
						z"/>
					<rect x="199.18" y="386.9" class="st11" width="12.16" height="20.86"/>
					<rect x="181.05" y="356.85" class="st11" width="46.75" height="6.33"/>
					<rect x="175.69" y="368.88" class="st11" width="59.78" height="8.09"/>
				</g>
			</g>
		</g>
		<g class="st3">
			<g class="st4">
				<rect x="290.66" y="334.09" class="st5" width="80.75" height="83.66"/>
				<rect x="297.54" y="343.16" class="st10" width="67" height="17.71"/>
				<rect x="297.54" y="370.03" class="st10" width="67" height="17.71"/>
				<rect x="338.61" y="396.9" class="st10" width="25.93" height="20.86"/>
				<rect x="297.54" y="396.9" class="st10" width="33.5" height="10.43"/>
			</g>
			<g>
				<g>
					<rect x="280.66" y="324.09" class="st11" width="80.75" height="83.66"/>
					<rect x="287.54" y="333.16" class="st13" width="67" height="17.71"/>
					<rect x="287.54" y="360.03" class="st13" width="67" height="17.71"/>
					<g>
						<rect x="328.61" y="386.9" class="st13" width="25.93" height="20.86"/>
						<rect x="287.54" y="386.9" class="st13" width="33.5" height="10.43"/>
					</g>
				</g>
			</g>
		</g>
		<g class="st3">
			<g class="st4">
				<rect x="468.54" y="355.32" class="st5" width="54.22" height="62.44"/>
				<rect x="489.95" y="396.9" class="st10" width="25.93" height="20.86"/>
				<rect x="475.51" y="396.9" class="st10" width="6.87" height="10.43"/>
				<line class="st10" x1="475.51" y1="389.8" x2="515.88" y2="389.8"/>
				<rect x="475.51" y="360.87" class="st10" width="40.38" height="22.06"/>
			</g>
			<g>
				<g>
					<rect x="458.54" y="345.32" class="st11" width="54.22" height="62.44"/>
					<g>
						<rect x="479.95" y="386.9" class="st13" width="25.93" height="20.86"/>
						<rect x="465.51" y="386.9" class="st13" width="6.87" height="10.43"/>
					</g>
					<line class="st13" x1="465.51" y1="379.8" x2="505.88" y2="379.8"/>
					<rect x="465.51" y="350.87" class="st13" width="40.38" height="22.06"/>
				</g>
			</g>
		</g>
	</g>
	<circle class="st16" cx="226.3" cy="127.52" r="7.38"/>
	<circle class="st16" cx="487.62" cy="256.39" r="7.38"/>
	<circle class="st16" cx="334.76" cy="159.53" r="1.85"/>
	<circle class="st16" cx="331.55" cy="154.72" r="1.85"/>
	<circle class="st16" cx="305.97" cy="189.13" r="1.85"/>
	<path class="st16" d="M175.34,42.24c0,0-2.07,0-4.61,0c-2.55,0-4.61,0-4.61,0s2.07,0,4.61,0
		C173.27,42.24,175.34,42.24,175.34,42.24z"/>
	<ellipse class="st16" cx="180.87" cy="52.39" rx="10.15" ry="5.54"/>
	<ellipse class="st16" cx="167.03" cy="42.24" rx="10.15" ry="5.54"/>
	<circle class="st16" cx="89.51" cy="140.36" r="3.69"/>
	<circle class="st16" cx="185.46" cy="230.77" r="1.85"/>
	<circle class="st16" cx="451.74" cy="117.17" r="5.54"/>
	<circle class="st16" cx="447.13" cy="125.47" r="2.77"/>
	<circle class="st16" cx="434.21" cy="199.28" r="2.77"/>
	<ellipse class="st16" cx="466.5" cy="239.87" rx="3.69" ry="4.61"/>
	<ellipse class="st16" cx="475.73" cy="234.34" rx="3.69" ry="4.61"/>
	<circle class="st16" cx="604.36" cy="218.54" r="4.64"/>
	<circle class="st16" cx="613.36" cy="212.54" r="4.64"/>
	<circle class="st16" cx="457.27" cy="68.45" r="20.55"/>
	<circle class="st16" cx="438.3" cy="173.48" r="15.52"/>
	<circle class="st16" cx="692.54" cy="123.63" r="6.46"/>
	<g>
		<g>
			<circle class="st2" cx="495.27" cy="28.73" r="26.72"/>
			<g>
				<g class="st4">
					<g>
						<defs>
							<circle id="SVGID_3_" cx="497.39" cy="31" r="21.53"/>
						</defs>
						<clipPath id="SVGID_4_">
							<use xlink:href="#SVGID_3_"  style="overflow:visible;"/>
						</clipPath>
					</g>
					<g>
						<defs>
							<circle id="SVGID_5_" cx="497.39" cy="31" r="21.53"/>
						</defs>
						<use xlink:href="#SVGID_5_"  style="overflow:visible;"/>
						<clipPath id="SVGID_6_">
							<use xlink:href="#SVGID_5_"  style="overflow:visible;"/>
						</clipPath>
						<path class="st17" d="M495.24,15.81c-2.02-1.44-6.83,0.06-8.4,4.86s2.07,15.62-0.95,16.48c0.95,2.42,8.22,1.82,10.98,0.71
							c-0.13-0.15-1.63-18.15-1.63-18.15V15.81z"/>
						<path class="st17" d="M495.24,15.81c1.35-1.35,8.25-1.98,11.09,3.75c2.9,5.85-0.6,16.73,2.42,17.59
							c-1.7,1.52-8.22,1.82-10.98,0.71c0.13-0.15-2.53-16.87-2.53-16.87V15.81z"/>
						<path class="st18" d="M508.51,58.48h-22.62V50.2c0-4.38,3.55-7.92,7.92-7.92h6.77c4.38,0,7.92,3.55,7.92,7.92V58.48z"/>
						<path class="st18" d="M497.97,46.31h-1.54c-0.99,0-1.8-0.81-1.8-1.8v-8.55c0-0.99,0.81-1.8,1.8-1.8h1.54
							c0.99,0,1.8,0.81,1.8,1.8v8.55C499.77,45.51,498.97,46.31,497.97,46.31z"/>
						<path class="st17" d="M497.97,45.2h-1.54c-0.99,0-1.8-0.81-1.8-1.8v-8.55c0-0.99,0.81-1.8,1.8-1.8h1.54
							c0.99,0,1.8,0.81,1.8,1.8v8.55C499.77,44.39,498.97,45.2,497.97,45.2z"/>
						<circle class="st18" cx="505.71" cy="29.28" r="1.86"/>
						<path class="st18" d="M506.08,28.26c0.44,0.12,0.8,0.44,0.96,0.86"/>
						<circle class="st17" cx="488.7" cy="29.28" r="1.86"/>
						<path class="st18" d="M488.32,28.26c-0.44,0.12-0.8,0.44-0.96,0.86"/>
						<path class="st17" d="M497.2,40.56L497.2,40.56c-4.7,0-8.5-3.81-8.5-8.5v-4.64l2.32-1.83l2.94-3.93l11.75,5.76v4.64
							C505.71,36.76,501.9,40.56,497.2,40.56z"/>
						<path class="st18" d="M494.89,35.13c0.76,1.35,3.59,1.78,4.82,0C498.11,35.49,496.5,35.47,494.89,35.13z"/>
						<line class="st19" x1="496.29" y1="37.15" x2="498.12" y2="37.15"/>
						<path class="st18" d="M497.89,30.5c0.46,0.43,0.85,1.33,0.54,1.77c-0.48,0.68-1.55,0.33-1.55,0.33"/>
						<circle class="st20" cx="501.01" cy="28.86" r="0.72"/>
						<circle class="st20" cx="493.4" cy="28.77" r="0.72"/>
						<path class="st18" d="M491.78,26.56c0.62-0.45,1.46-0.64,2.33-0.47"/>
						<path class="st17" d="M495.95,17.31l-2.01,4.08c-1.26,2.79-3.32,4.95-5.27,5.97"/>
						<path class="st17" d="M495.24,15.81l-1.29,5.58c1.14,1.8,7.72,6.03,12.01,6.03"/>
						<line class="st19" x1="490.62" y1="49.68" x2="490.62" y2="58.48"/>
						<line class="st19" x1="504.02" y1="49.68" x2="504.02" y2="58.48"/>
						<ellipse class="st20" cx="492.77" cy="31.44" rx="1.49" ry="0.63"/>
						<ellipse class="st20" cx="502.13" cy="31.44" rx="1.49" ry="0.63"/>
					</g>
					<g>
						<defs>
							<circle id="SVGID_7_" cx="497.39" cy="31" r="21.53"/>
						</defs>
						<clipPath id="SVGID_8_">
							<use xlink:href="#SVGID_7_"  style="overflow:visible;"/>
						</clipPath>
					</g>
				</g>
				<g>
					<g>
						<g>
							<defs>
								<circle id="SVGID_9_" cx="494.94" cy="28.56" r="21.53"/>
							</defs>
							<clipPath id="SVGID_10_">
								<use xlink:href="#SVGID_9_"  style="overflow:visible;"/>
							</clipPath>
						</g>
					</g>
					<g>
						<g>
							<defs>
								<circle id="SVGID_11_" cx="494.94" cy="28.56" r="21.53"/>
							</defs>
							<use xlink:href="#SVGID_11_"  style="overflow:visible;fill:#F6F2EF;"/>
							<clipPath id="SVGID_12_">
								<use xlink:href="#SVGID_11_"  style="overflow:visible;"/>
							</clipPath>
							<g class="st21">
								<g>
									<path class="st22" d="M492.8,13.37c-2.02-1.44-6.83,0.06-8.4,4.86s2.07,15.62-0.95,16.48c0.95,2.42,8.22,1.82,10.98,0.71
										c-0.13-0.15-1.63-18.15-1.63-18.15V13.37z"/>
									<path class="st22" d="M492.8,13.37c1.35-1.35,8.25-1.98,11.09,3.75c2.9,5.85-0.6,16.73,2.42,17.59
										c-1.7,1.52-8.22,1.82-10.98,0.71c0.13-0.15-2.53-16.87-2.53-16.87V13.37z"/>
									<g>
										<path class="st23" d="M506.07,56.04h-22.62v-8.28c0-4.38,3.55-7.92,7.92-7.92h6.77c4.38,0,7.92,3.55,7.92,7.92V56.04z"/>
										<path class="st24" d="M495.53,43.87h-1.54c-0.99,0-1.8-0.81-1.8-1.8v-8.55c0-0.99,0.81-1.8,1.8-1.8h1.54
											c0.99,0,1.8,0.81,1.8,1.8v8.55C497.33,43.06,496.52,43.87,495.53,43.87z"/>
										<path class="st25" d="M495.53,42.75h-1.54c-0.99,0-1.8-0.81-1.8-1.8V32.4c0-0.99,0.81-1.8,1.8-1.8h1.54
											c0.99,0,1.8,0.81,1.8,1.8v8.55C497.33,41.95,496.52,42.75,495.53,42.75z"/>
										<circle class="st26" cx="503.26" cy="26.83" r="1.86"/>
										<path class="st27" d="M503.64,25.81c0.44,0.12,0.8,0.44,0.96,0.86"/>
										<circle class="st25" cx="486.25" cy="26.83" r="1.86"/>
										<path class="st27" d="M485.88,25.81c-0.44,0.12-0.8,0.44-0.96,0.86"/>
										<path class="st25" d="M494.76,38.12L494.76,38.12c-4.7,0-8.5-3.81-8.5-8.5v-4.64l2.32-1.83l2.94-3.93l11.75,5.76v4.64
											C503.26,34.31,499.46,38.12,494.76,38.12z"/>
										<g>
											<path class="st27" d="M492.44,32.69c0.76,1.35,3.59,1.78,4.82,0C495.66,33.05,494.06,33.03,492.44,32.69z"/>
										</g>
										<line class="st12" x1="493.84" y1="34.71" x2="495.67" y2="34.71"/>
										<path class="st26" d="M495.44,28.05c0.46,0.43,0.85,1.33,0.54,1.77c-0.48,0.68-1.55,0.33-1.55,0.33"/>
										<g>
											<circle class="st28" cx="498.57" cy="26.42" r="0.72"/>
										</g>
										<g>
											<circle class="st28" cx="490.96" cy="26.33" r="0.72"/>
										</g>
										<path class="st26" d="M489.34,24.12c0.62-0.45,1.46-0.64,2.33-0.47"/>
									</g>
									<path class="st22" d="M493.51,14.87l-2.01,4.08c-1.26,2.79-3.32,4.95-5.27,5.97"/>
									<path class="st22" d="M492.8,13.37l-1.29,5.58c1.14,1.8,7.72,6.03,12.01,6.03"/>
									<g>
										<line class="st12" x1="488.17" y1="47.24" x2="488.17" y2="56.04"/>
										<line class="st12" x1="501.58" y1="47.24" x2="501.58" y2="56.04"/>
									</g>
								</g>
								<ellipse class="st29" cx="490.33" cy="28.99" rx="1.49" ry="0.63"/>
								<ellipse class="st29" cx="499.69" cy="28.99" rx="1.49" ry="0.63"/>
							</g>
						</g>
					</g>
					<g>
						<g>
							<defs>
								<circle id="SVGID_13_" cx="494.94" cy="28.56" r="21.53"/>
							</defs>
							<clipPath id="SVGID_14_">
								<use xlink:href="#SVGID_13_"  style="overflow:visible;"/>
							</clipPath>
						</g>
					</g>
				</g>
			</g>
		</g>
	</g>
	<g>
		<circle class="st2" cx="447.21" cy="124.79" r="28.78"/>
		<g>
			<g class="st4">
				<g>
					<defs>
						<circle id="SVGID_15_" cx="449.3" cy="127.05" r="23.19"/>
					</defs>
					<clipPath id="SVGID_16_">
						<use xlink:href="#SVGID_15_"  style="overflow:visible;"/>
					</clipPath>
				</g>
				<g>
					<defs>
						<circle id="SVGID_17_" cx="449.3" cy="127.05" r="23.19"/>
					</defs>
					<use xlink:href="#SVGID_17_"  style="overflow:visible;"/>
					<clipPath id="SVGID_18_">
						<use xlink:href="#SVGID_17_"  style="overflow:visible;"/>
					</clipPath>
					<path class="st30" d="M462.9,168.55h-24.36v-24.49c0-3.83,3.11-6.94,6.94-6.94h10.49c3.83,0,6.94,3.11,6.94,6.94V168.55z"/>
					<rect x="447.95" y="137.12" class="st30" width="5.54" height="31.43"/>
					<path class="st31" d="M451.91,140.27h-2.38c-0.87,0-1.58-0.71-1.58-1.58v-9.94c0-0.87,0.71-1.58,1.58-1.58h2.38
						c0.87,0,1.58,0.71,1.58,1.58v9.94C453.49,139.57,452.78,140.27,451.91,140.27z"/>
					<circle class="st31" cx="459.88" cy="123.12" r="2"/>
					<path class="st30" d="M460.28,122.02c0.47,0.13,0.86,0.48,1.03,0.93"/>
					<circle class="st31" cx="441.56" cy="123.12" r="2"/>
					<path class="st30" d="M441.15,122.02c-0.47,0.13-0.86,0.48-1.03,0.93"/>
					<path class="st30" d="M454.66,135.28h-7.89c-2.88,0-5.22-2.34-5.22-5.22V114.2h18.32v15.86
						C459.88,132.94,457.54,135.28,454.66,135.28z"/>
					<path class="st30" d="M448.22,129.43c0.82,1.45,3.86,1.92,5.19,0"/>
					<line class="st32" x1="449.73" y1="131.6" x2="451.7" y2="131.6"/>
					<path class="st30" d="M442.93,114.2c0.84,1.2-1.37,6.92-1.37,6.92s-1.86-6.17-1.15-7.72s1.62-1.62,1.62-1.62L442.93,114.2z"/>
					<path class="st30" d="M461.25,113.72C461.25,113.72,461.25,113.72,461.25,113.72c-0.74-6.13-9.08-6.13-13.22-6
						c-4.14,0.13-5.43,1.87-6.01,4.07l0.9,2.42c5.05,0.41,10.7,3.72,15.56,1.52c0.25,2.11,1.52,5.4,1.52,5.4
						S461.65,115.65,461.25,113.72z"/>
					<path class="st30" d="M450.72,121.9c0,2.4,1.58,2.77,1.58,3.8c0,1.44-1.94,1-1.94,1"/>
					<circle class="st33" cx="454.92" cy="121.9" r="0.78"/>
					<path class="st32" d="M453.62,121.95c0.33-0.4,0.82-0.67,1.34-0.73c0.52-0.06,1.05,0.08,1.47,0.39"/>
					<circle class="st33" cx="446.43" cy="121.8" r="0.78"/>
					<path class="st32" d="M447.78,121.85c-0.33-0.4-0.82-0.67-1.34-0.73c-0.52-0.06-1.05,0.08-1.47,0.39"/>
					<path class="st30" d="M457.77,120.12c-0.54-0.62-1.37-1.04-2.32-1.08c-0.95-0.04-1.82,0.31-2.4,0.89"/>
					<path class="st30" d="M443.87,120.12c0.54-0.62,1.37-1.04,2.32-1.08c0.95-0.04,1.82,0.31,2.4,0.89"/>
					<polygon class="st30" points="450.72,140.27 447.95,142.07 447.95,168.55 450.72,168.55 453.49,168.55 453.49,142.07 					"/>
					<polygon class="st30" points="450.72,142.47 449.37,141.15 450.72,140.27 452,141.1 					"/>
					<polygon class="st30" points="451.93,168.55 451.06,142 450.68,141.47 450.3,142 449.44,168.55 					"/>
					<line class="st32" x1="443.05" y1="144.64" x2="443.05" y2="168.55"/>
					<line class="st32" x1="458.55" y1="144.64" x2="458.55" y2="168.55"/>
				</g>
				<g>
					<defs>
						<circle id="SVGID_19_" cx="449.3" cy="127.05" r="23.19"/>
					</defs>
					<clipPath id="SVGID_20_">
						<use xlink:href="#SVGID_19_"  style="overflow:visible;"/>
					</clipPath>
				</g>
			</g>
			<g>
				<g>
					<g>
						<defs>
							<circle id="SVGID_21_" cx="446.86" cy="124.61" r="23.19"/>
						</defs>
						<clipPath id="SVGID_22_">
							<use xlink:href="#SVGID_21_"  style="overflow:visible;"/>
						</clipPath>
					</g>
				</g>
				<g>
					<g>
						<defs>
							<circle id="SVGID_23_" cx="446.86" cy="124.61" r="23.19"/>
						</defs>
						<use xlink:href="#SVGID_23_"  style="overflow:visible;fill:#F6F2EF;"/>
						<clipPath id="SVGID_24_">
							<use xlink:href="#SVGID_23_"  style="overflow:visible;"/>
						</clipPath>
						<g class="st34">
							<path class="st24" d="M460.46,166.1H436.1v-24.49c0-3.83,3.11-6.94,6.94-6.94h10.49c3.83,0,6.94,3.11,6.94,6.94V166.1z"/>
							<rect x="445.51" y="134.68" class="st27" width="5.54" height="31.43"/>
							<path class="st35" d="M449.47,137.83h-2.38c-0.87,0-1.58-0.71-1.58-1.58v-9.94c0-0.87,0.71-1.58,1.58-1.58h2.38
								c0.87,0,1.58,0.71,1.58,1.58v9.94C451.04,137.12,450.34,137.83,449.47,137.83z"/>
							<circle class="st35" cx="457.44" cy="120.68" r="2"/>
							<path class="st27" d="M457.84,119.58c0.47,0.13,0.86,0.48,1.03,0.93"/>
							<circle class="st35" cx="439.12" cy="120.68" r="2"/>
							<path class="st27" d="M438.71,119.58c-0.47,0.13-0.86,0.48-1.03,0.93"/>
							<path class="st36" d="M452.22,132.84h-7.89c-2.88,0-5.22-2.34-5.22-5.22v-15.86h18.32v15.86
								C457.44,130.5,455.1,132.84,452.22,132.84z"/>
							<g>
								<path class="st36" d="M445.78,126.99c0.82,1.45,3.86,1.92,5.19,0"/>
							</g>
							<line class="st12" x1="447.29" y1="129.16" x2="449.26" y2="129.16"/>
							<path class="st37" d="M440.48,111.76c0.84,1.2-1.37,6.92-1.37,6.92s-1.86-6.17-1.15-7.72s1.62-1.62,1.62-1.62L440.48,111.76z
								"/>
							<path class="st37" d="M458.81,111.27C458.81,111.27,458.81,111.27,458.81,111.27c-0.74-6.13-9.08-6.13-13.22-6
								c-4.14,0.13-5.43,1.87-6.01,4.07l0.9,2.42c5.05,0.41,10.7,3.72,15.56,1.52c0.25,2.11,1.52,5.4,1.52,5.4
								S459.21,113.21,458.81,111.27z"/>
							<path class="st36" d="M448.28,119.46c0,2.4,1.58,2.77,1.58,3.8c0,1.44-1.94,1-1.94,1"/>
							<g>
								<circle class="st28" cx="452.47" cy="119.46" r="0.78"/>
								<path class="st12" d="M451.18,119.51c0.33-0.4,0.82-0.67,1.34-0.73c0.52-0.06,1.05,0.08,1.47,0.39"/>
							</g>
							<g>
								<circle class="st28" cx="443.99" cy="119.36" r="0.78"/>
								<path class="st12" d="M445.34,119.41c-0.33-0.4-0.82-0.67-1.34-0.73c-0.52-0.06-1.05,0.08-1.47,0.39"/>
							</g>
							<path class="st36" d="M455.33,117.68c-0.54-0.62-1.37-1.04-2.32-1.08c-0.95-0.04-1.82,0.31-2.4,0.89"/>
							<path class="st36" d="M441.43,117.68c0.54-0.62,1.37-1.04,2.32-1.08s1.82,0.31,2.4,0.89"/>
							<polygon class="st27" points="448.28,137.83 445.51,139.62 445.51,166.1 448.28,166.1 451.04,166.1 451.04,139.62 							"/>
							<polygon class="st24" points="448.28,140.03 446.93,138.7 448.28,137.83 449.55,138.66 							"/>
							<polygon class="st24" points="449.48,166.1 448.62,139.55 448.24,139.03 447.86,139.55 447,166.1 							"/>
							<g>
								<line class="st38" x1="440.61" y1="142.2" x2="440.61" y2="166.1"/>
								<line class="st38" x1="456.11" y1="142.2" x2="456.11" y2="166.1"/>
							</g>
						</g>
					</g>
				</g>
				<g>
					<g>
						<defs>
							<circle id="SVGID_25_" cx="446.86" cy="124.61" r="23.19"/>
						</defs>
						<clipPath id="SVGID_26_">
							<use xlink:href="#SVGID_25_"  style="overflow:visible;"/>
						</clipPath>
					</g>
				</g>
			</g>
		</g>
	</g>
	<g>
		<g>
			<circle class="st2" cx="181.78" cy="80.22" r="28.22"/>
			<g>
				<g class="st4">
					<g>
						<defs>
							<circle id="SVGID_27_" cx="184.22" cy="82.66" r="22.74"/>
						</defs>
						<clipPath id="SVGID_28_">
							<use xlink:href="#SVGID_27_"  style="overflow:visible;"/>
						</clipPath>
					</g>
					<g>
						<defs>
							<circle id="SVGID_29_" cx="184.22" cy="82.66" r="22.74"/>
						</defs>
						<use xlink:href="#SVGID_29_"  style="overflow:visible;"/>
						<clipPath id="SVGID_30_">
							<use xlink:href="#SVGID_29_"  style="overflow:visible;"/>
						</clipPath>
						<path class="st39" d="M195.51,111.73h-23.88v-9.62c0-4.14,3.36-7.5,7.5-7.5h8.89c4.14,0,7.5,3.36,7.5,7.5V111.73z"/>
						<path class="st39" d="M183.57,99.22L183.57,99.22c2.09,0,3.78-1.69,3.78-3.78v-0.83h-7.56v0.83
							C179.8,97.53,181.49,99.22,183.57,99.22z"/>
						<path class="st40" d="M184.58,97.7h-2.02c-0.94,0-1.7-0.76-1.7-1.7v-9.42c0-0.94,0.76-1.7,1.7-1.7h2.02
							c0.94,0,1.7,0.76,1.7,1.7V96C186.29,96.94,185.52,97.7,184.58,97.7z"/>
						<circle class="st40" cx="192.55" cy="80.89" r="1.96"/>
						<path class="st39" d="M192.95,79.81c0.46,0.13,0.84,0.47,1.01,0.91"/>
						<circle class="st40" cx="174.59" cy="80.89" r="1.96"/>
						<path class="st40" d="M174.2,79.81c-0.46,0.13-0.84,0.47-1.01,0.91"/>
						<path class="st40" d="M186.91,92.81h-6.68c-3.11,0-5.64-2.52-5.64-5.64V72.15h17.96v15.02
							C192.55,90.28,190.03,92.81,186.91,92.81z"/>
						<line class="st41" x1="182.61" y1="89.21" x2="184.54" y2="89.21"/>
						<path class="st39" d="M191.99,68.18c-0.56-0.29-1.19-0.42-1.71-0.76c-0.53-0.34-0.95-0.98-0.74-1.57
							c-0.79,0.26-1.58,0.51-2.38,0.77c0.08-0.73,0.54-1.42,1.19-1.77c-1.3,0.25-2.6,0.5-3.9,0.75c0.54-0.51,1.08-1.01,1.62-1.52
							c-2.31,0.2-4.58,0.79-6.7,1.73c-1.06,0.47-2.08,1.02-3.05,1.66c-0.91,0.6-1.41,1.29-1.93,2.25c-0.19,0.35-0.29,0.67-0.34,0.98
							c-0.06,0.2-0.11,0.42-0.13,0.65c-0.24,2.39,0.67,7.6,0.67,7.6s1.17-3.02,1.46-5.1c0.2-0.4,0.47-0.75,0.83-1
							c0.87-0.59,1.82-0.28,2.69,0.1c1,0.43,2.05,0.72,3.13,0.88c1.3,0.19,2.63,0.18,3.93-0.03c1.23-0.2,2.44-0.94,3.66-0.38
							c0.69,0.32,0.87,0.81,1.1,1.37c0.43,1.94,1.29,4.15,1.29,4.15s1.44-4.77,1.28-6.9C194.07,70.55,193.59,69,191.99,68.18z"/>
						<path class="st40" d="M183.57,79.7c2.58,3.1,1.23,5.81-0.35,4.7"/>
						<circle class="st42" cx="187.35" cy="79.41" r="0.76"/>
						<circle class="st42" cx="179.8" cy="79.31" r="0.76"/>
						<path class="st41" d="M190.28,77.38c-0.48-0.16-1.2-0.28-2.01-0.31c-0.81-0.03-1.53,0.02-2.02,0.14"/>
						<path class="st41" d="M181.61,77.24c-0.49-0.13-1.21-0.2-2.02-0.17c-0.81,0.02-1.53,0.13-2,0.28"/>
						<path class="st41" d="M190.19,80.62h-4.41c-0.42,0-0.76-0.34-0.76-0.76v-0.9c0-0.42,0.34-0.76,0.76-0.76h4.41
							c0.42,0,0.76,0.34,0.76,0.76v0.9C190.95,80.28,190.61,80.62,190.19,80.62z"/>
						<path class="st41" d="M182,80.62h-4.41c-0.42,0-0.76-0.34-0.76-0.76v-0.9c0-0.42,0.34-0.76,0.76-0.76H182
							c0.42,0,0.76,0.34,0.76,0.76v0.9C182.76,80.28,182.42,80.62,182,80.62z"/>
						<path class="st41" d="M182.79,80.05c0-0.62,0.5-1.12,1.12-1.12c0.62,0,1.12,0.5,1.12,1.12"/>
						<line class="st39" x1="176.34" y1="102.44" x2="176.34" y2="111.73"/>
						<line class="st39" x1="190.5" y1="102.44" x2="190.5" y2="111.73"/>
						<path class="st39" d="M185.83,86.37c0,1.12-1.04,2.03-2.31,2.03c-1.28,0-2.31-0.91-2.31-2.03H185.83z"/>
					</g>
					<g>
						<defs>
							<circle id="SVGID_31_" cx="184.22" cy="82.66" r="22.74"/>
						</defs>
						<clipPath id="SVGID_32_">
							<use xlink:href="#SVGID_31_"  style="overflow:visible;"/>
						</clipPath>
					</g>
				</g>
				<g>
					<g>
						<g>
							<defs>
								<circle id="SVGID_33_" cx="181.78" cy="80.22" r="22.74"/>
							</defs>
							<clipPath id="SVGID_34_">
								<use xlink:href="#SVGID_33_"  style="overflow:visible;"/>
							</clipPath>
						</g>
					</g>
					<g>
						<g>
							<defs>
								<circle id="SVGID_35_" cx="181.78" cy="80.22" r="22.74"/>
							</defs>
							<use xlink:href="#SVGID_35_"  style="overflow:visible;fill:#F6F2EF;"/>
							<clipPath id="SVGID_36_">
								<use xlink:href="#SVGID_35_"  style="overflow:visible;"/>
							</clipPath>
							<g class="st43">
								<path class="st44" d="M193.07,109.28h-23.88v-9.62c0-4.14,3.36-7.5,7.5-7.5h8.89c4.14,0,7.5,3.36,7.5,7.5V109.28z"/>
								<path class="st23" d="M181.13,96.78L181.13,96.78c2.09,0,3.78-1.69,3.78-3.78v-0.83h-7.56V93
									C177.35,95.09,179.04,96.78,181.13,96.78z"/>
								<path class="st45" d="M182.14,95.26h-2.02c-0.94,0-1.7-0.76-1.7-1.7v-9.42c0-0.94,0.76-1.7,1.7-1.7h2.02
									c0.94,0,1.7,0.76,1.7,1.7v9.42C183.84,94.5,183.08,95.26,182.14,95.26z"/>
								<circle class="st45" cx="190.11" cy="78.45" r="1.96"/>
								<path class="st27" d="M190.51,77.37c0.46,0.13,0.84,0.47,1.01,0.91"/>
								<circle class="st45" cx="172.15" cy="78.45" r="1.96"/>
								<path class="st45" d="M171.75,77.37c-0.46,0.13-0.84,0.47-1.01,0.91"/>
								<path class="st45" d="M184.47,90.36h-6.68c-3.11,0-5.64-2.52-5.64-5.64V69.7h17.96v15.02
									C190.11,87.84,187.58,90.36,184.47,90.36z"/>
								<line class="st12" x1="180.16" y1="86.76" x2="182.1" y2="86.76"/>
								<path class="st37" d="M189.55,65.73c-0.56-0.29-1.19-0.42-1.71-0.76c-0.53-0.34-0.95-0.98-0.74-1.57
									c-0.79,0.26-1.58,0.51-2.38,0.77c0.08-0.73,0.54-1.42,1.19-1.77c-1.3,0.25-2.6,0.5-3.9,0.75c0.54-0.51,1.08-1.01,1.62-1.52
									c-2.31,0.2-4.58,0.79-6.7,1.73c-1.06,0.47-2.08,1.02-3.05,1.66c-0.91,0.6-1.41,1.29-1.93,2.25
									c-0.19,0.35-0.29,0.67-0.34,0.98c-0.06,0.2-0.11,0.42-0.13,0.65c-0.24,2.39,0.67,7.6,0.67,7.6s1.17-3.02,1.46-5.1
									c0.2-0.4,0.47-0.75,0.83-1c0.87-0.59,1.82-0.28,2.69,0.1c1,0.43,2.05,0.72,3.13,0.88c1.3,0.19,2.63,0.18,3.93-0.03
									c1.23-0.2,2.44-0.94,3.66-0.38c0.69,0.32,0.87,0.81,1.1,1.37c0.43,1.94,1.29,4.15,1.29,4.15s1.44-4.77,1.28-6.9
									C191.63,68.1,191.15,66.55,189.55,65.73z"/>
								<path class="st45" d="M181.13,77.25c2.58,3.1,1.23,5.81-0.35,4.7"/>
								<g>
									<g>
										<circle class="st28" cx="184.91" cy="76.96" r="0.76"/>
									</g>
									<g>
										<circle class="st28" cx="177.35" cy="76.87" r="0.76"/>
									</g>
								</g>
								<path class="st12" d="M187.84,74.94c-0.48-0.16-1.2-0.28-2.01-0.31c-0.81-0.03-1.53,0.02-2.02,0.14"/>
								<path class="st12" d="M179.16,74.8c-0.49-0.13-1.21-0.2-2.02-0.17c-0.81,0.02-1.53,0.13-2,0.28"/>
								<path class="st12" d="M187.75,78.17h-4.41c-0.42,0-0.76-0.34-0.76-0.76v-0.9c0-0.42,0.34-0.76,0.76-0.76h4.41
									c0.42,0,0.76,0.34,0.76,0.76v0.9C188.51,77.83,188.17,78.17,187.75,78.17z"/>
								<path class="st12" d="M179.56,78.17h-4.41c-0.42,0-0.76-0.34-0.76-0.76v-0.9c0-0.42,0.34-0.76,0.76-0.76h4.41
									c0.42,0,0.76,0.34,0.76,0.76v0.9C180.32,77.83,179.98,78.17,179.56,78.17z"/>
								<path class="st12" d="M180.34,77.6c0-0.62,0.5-1.12,1.12-1.12c0.62,0,1.12,0.5,1.12,1.12"/>
								<g>
									<line class="st37" x1="173.9" y1="99.99" x2="173.9" y2="109.28"/>
									<line class="st37" x1="188.05" y1="99.99" x2="188.05" y2="109.28"/>
								</g>
								<path class="st27" d="M183.39,83.93c0,1.12-1.04,2.03-2.31,2.03s-2.31-0.91-2.31-2.03H183.39z"/>
							</g>
						</g>
					</g>
					<g>
						<g>
							<defs>
								<circle id="SVGID_37_" cx="181.78" cy="80.22" r="22.74"/>
							</defs>
							<clipPath id="SVGID_38_">
								<use xlink:href="#SVGID_37_"  style="overflow:visible;"/>
							</clipPath>
						</g>
					</g>
				</g>
			</g>
		</g>
	</g>
	<g>
		<g>
			<circle class="st2" cx="288.33" cy="140.5" r="28.5"/>
			<g>
				<g class="st4">
					<g>
						<defs>
							<circle id="SVGID_39_" cx="289.54" cy="142.6" r="22.96"/>
						</defs>
						<clipPath id="SVGID_40_">
							<use xlink:href="#SVGID_39_"  style="overflow:visible;"/>
						</clipPath>
					</g>
					<circle class="st46" cx="289.54" cy="142.6" r="22.96"/>
					<g>
						<defs>
							<circle id="SVGID_41_" cx="289.54" cy="142.6" r="22.96"/>
						</defs>
						<use xlink:href="#SVGID_41_"  style="overflow:visible;"/>
						<clipPath id="SVGID_42_">
							<use xlink:href="#SVGID_41_"  style="overflow:visible;"/>
						</clipPath>
						<path class="st47" d="M292.24,133.02h-4.27c-1.86,0-3.37-1.51-3.37-3.37v-4.27c0-1.86,1.51-3.37,3.37-3.37h4.27
							c1.86,0,3.37,1.51,3.37,3.37v4.27C295.61,131.51,294.1,133.02,292.24,133.02z"/>
						<path class="st47" d="M285.09,145.62h8.65c3.12,0,5.66-2.53,5.66-5.66v-7.17c0-3.12-2.53-5.66-5.66-5.66h-8.65
							c-3.12,0-5.66,2.53-5.66,5.66v7.17C279.44,143.09,281.97,145.62,285.09,145.62z"/>
						<path class="st48" d="M301.48,173.12h-24.12v-9.9c0-4.08,3.3-7.38,7.38-7.38h9.35c4.08,0,7.38,3.31,7.38,7.38V173.12z"/>
						<line class="st49" x1="289.42" y1="158.96" x2="289.42" y2="173.12"/>
						<path class="st48" d="M286.66,155.84c-0.5,0.32-0.95,2.24-0.95,3.78c0.22,0.22,3.71-0.66,3.71-0.66L286.66,155.84z"/>
						<path class="st48" d="M292.18,155.84c0.5,0.32,0.95,2.24,0.95,3.78c-0.22,0.22-3.71-0.66-3.71-0.66L292.18,155.84z"/>
						<path class="st48" d="M290.48,158.96h-2.13c-0.93,0-1.68-0.75-1.68-1.68v-9.6c0-0.93,0.75-1.68,1.68-1.68h2.13
							c0.93,0,1.68,0.75,1.68,1.68v9.6C292.16,158.21,291.41,158.96,290.48,158.96z"/>
						<circle class="st48" cx="298.49" cy="141.98" r="1.98"/>
						<path class="st48" d="M298.89,140.89c0.47,0.13,0.85,0.47,1.02,0.92"/>
						<circle class="st48" cx="280.35" cy="141.98" r="1.98"/>
						<path class="st48" d="M279.95,140.89c-0.47,0.13-0.85,0.47-1.02,0.92"/>
						<path class="st48" d="M292.94,154.02h-7.03c-3.07,0-5.55-2.49-5.55-5.55v-15.92h18.14v15.92
							C298.49,151.53,296,154.02,292.94,154.02z"/>
						<path class="st48" d="M286.66,148.23c0.9,2.26,4.26,2.98,5.73,0C290.48,148.83,288.57,148.79,286.66,148.23z"/>
						<line class="st49" x1="288.44" y1="150.94" x2="290.4" y2="150.94"/>
						<path class="st48" d="M289.52,140.89c0,0,2.34,3.74,2,4.21c-0.51,0.72-2.46,0.42-2.46,0.42"/>
						<circle class="st50" cx="293.48" cy="141.06" r="0.77"/>
						<circle class="st50" cx="285.37" cy="140.96" r="0.77"/>
						<path class="st48" d="M295.79,139.97c-0.49-0.62-1.24-1.03-2.1-1.07c-0.86-0.04-1.64,0.31-2.17,0.88"/>
						<path class="st48" d="M283.26,139.97c0.49-0.62,1.24-1.03,2.1-1.07c0.86-0.04,1.64,0.31,2.17,0.88"/>
						<path class="st47" d="M290.1,134.01c-4.44,0.6-6.59,4.12-9.75,4.5v-6.8l2.29-1.98l5.44-0.51L290.1,134.01z"/>
						<path class="st47" d="M290.1,134.01c0.29,2.28,3.8,5.99,8.38,5.99v-8.22l-1.98-1.84l-9.56-0.46L290.1,134.01z"/>
					</g>
					<g>
						<defs>
							<circle id="SVGID_43_" cx="289.54" cy="142.6" r="22.96"/>
						</defs>
						<clipPath id="SVGID_44_">
							<use xlink:href="#SVGID_43_"  style="overflow:visible;"/>
						</clipPath>
					</g>
				</g>
				<g>
					<g>
						<g>
							<defs>
								<circle id="SVGID_45_" cx="287.1" cy="140.15" r="22.96"/>
							</defs>
							<clipPath id="SVGID_46_">
								<use xlink:href="#SVGID_45_"  style="overflow:visible;"/>
							</clipPath>
						</g>
					</g>
					<g>
						<circle class="st51" cx="287.1" cy="140.15" r="22.96"/>
						<g>
							<defs>
								<circle id="SVGID_47_" cx="287.1" cy="140.15" r="22.96"/>
							</defs>
							<use xlink:href="#SVGID_47_"  style="overflow:visible;fill:#F6F2EF;"/>
							<clipPath id="SVGID_48_">
								<use xlink:href="#SVGID_47_"  style="overflow:visible;"/>
							</clipPath>
							<g class="st52">
								<path class="st53" d="M289.8,130.58h-4.27c-1.86,0-3.37-1.51-3.37-3.37v-4.27c0-1.86,1.51-3.37,3.37-3.37h4.27
									c1.86,0,3.37,1.51,3.37,3.37v4.27C293.17,129.07,291.66,130.58,289.8,130.58z"/>
								<path class="st53" d="M282.65,143.17h8.65c3.12,0,5.66-2.53,5.66-5.66v-7.17c0-3.12-2.53-5.66-5.66-5.66h-8.65
									c-3.12,0-5.66,2.53-5.66,5.66v7.17C276.99,140.64,279.53,143.17,282.65,143.17z"/>
								<g>
									<path class="st37" d="M299.03,170.68h-24.12v-9.9c0-4.08,3.31-7.38,7.38-7.38h9.35c4.08,0,7.38,3.31,7.38,7.38V170.68z"/>
									<line class="st38" x1="286.97" y1="156.52" x2="286.97" y2="170.68"/>
									<path class="st44" d="M284.21,153.4c-0.5,0.32-0.95,2.24-0.95,3.78c0.22,0.22,3.71-0.66,3.71-0.66L284.21,153.4z"/>
									<path class="st44" d="M289.74,153.4c0.5,0.32,0.95,2.24,0.95,3.78c-0.22,0.22-3.71-0.66-3.71-0.66L289.74,153.4z"/>
									<path class="st54" d="M288.04,156.52h-2.13c-0.93,0-1.68-0.75-1.68-1.68v-9.6c0-0.93,0.75-1.68,1.68-1.68h2.13
										c0.93,0,1.68,0.75,1.68,1.68v9.6C289.72,155.76,288.96,156.52,288.04,156.52z"/>
									<circle class="st54" cx="296.04" cy="139.54" r="1.98"/>
									<path class="st27" d="M296.44,138.45c0.47,0.13,0.85,0.47,1.02,0.92"/>
									<circle class="st54" cx="277.91" cy="139.54" r="1.98"/>
									<path class="st27" d="M277.51,138.45c-0.47,0.13-0.85,0.47-1.02,0.92"/>
									<path class="st54" d="M290.49,151.57h-7.03c-3.07,0-5.55-2.49-5.55-5.55V130.1h18.14v15.92
										C296.04,149.09,293.56,151.57,290.49,151.57z"/>
									<g>
										<path class="st27" d="M284.21,145.78c0.9,2.26,4.26,2.98,5.73,0C288.04,146.38,286.13,146.34,284.21,145.78z"/>
									</g>
									<line class="st12" x1="286" y1="148.5" x2="287.95" y2="148.5"/>
									<path class="st54" d="M287.07,138.45c0,0,2.34,3.74,2,4.21c-0.51,0.72-2.46,0.42-2.46,0.42"/>
									<g>
										<circle class="st28" cx="291.04" cy="138.61" r="0.77"/>
									</g>
									<g>
										<circle class="st28" cx="282.92" cy="138.52" r="0.77"/>
									</g>
									<path class="st54" d="M293.34,137.53c-0.49-0.62-1.24-1.03-2.1-1.07c-0.86-0.04-1.64,0.31-2.17,0.88"/>
									<path class="st54" d="M280.81,137.53c0.49-0.62,1.24-1.03,2.1-1.07c0.86-0.04,1.64,0.31,2.17,0.88"/>
								</g>
								<path class="st53" d="M287.66,131.57c-4.44,0.6-6.59,4.12-9.75,4.5v-6.8l2.29-1.98l5.44-0.51L287.66,131.57z"/>
								<path class="st53" d="M287.66,131.57c0.29,2.28,3.8,5.99,8.38,5.99v-8.22l-1.98-1.84l-9.56-0.46L287.66,131.57z"/>
							</g>
						</g>
					</g>
					<g>
						<g>
							<defs>
								<circle id="SVGID_49_" cx="287.1" cy="140.15" r="22.96"/>
							</defs>
							<clipPath id="SVGID_50_">
								<use xlink:href="#SVGID_49_"  style="overflow:visible;"/>
							</clipPath>
						</g>
					</g>
				</g>
			</g>
		</g>
	</g>
	<g>
		<g>
			<circle class="st2" cx="537.79" cy="244.58" r="32.2"/>
			<g>
				<g class="st4">
					<g>
						<defs>
							<circle id="SVGID_51_" cx="540.24" cy="247.03" r="25.95"/>
						</defs>
						<clipPath id="SVGID_52_">
							<use xlink:href="#SVGID_51_"  style="overflow:visible;"/>
						</clipPath>
					</g>
					<g>
						<defs>
							<circle id="SVGID_53_" cx="540.24" cy="247.03" r="25.95"/>
						</defs>
						<use xlink:href="#SVGID_53_"  style="overflow:visible;"/>
						<clipPath id="SVGID_54_">
							<use xlink:href="#SVGID_53_"  style="overflow:visible;"/>
						</clipPath>
						<path class="st55" d="M553.49,295.56h-26.99v-22.58c0-6.76,5.48-12.24,12.24-12.24h2.51c6.76,0,12.24,5.48,12.24,12.24V295.56
							z"/>
						<rect x="536.92" y="260.74" class="st55" width="6.14" height="34.82"/>
						<path class="st55" d="M540.27,264.23h-0.57c-1.54,0-2.78-1.25-2.78-2.78v-8.94c0-1.54,1.25-2.78,2.78-2.78h0.57
							c1.54,0,2.78,1.25,2.78,2.78v8.94C543.06,262.98,541.81,264.23,540.27,264.23z"/>
						<circle class="st55" cx="550.14" cy="246.62" r="2.21"/>
						<path class="st55" d="M550.59,245.4c0.52,0.14,0.95,0.53,1.14,1.03"/>
						<circle class="st55" cx="529.84" cy="246.62" r="2.21"/>
						<path class="st55" d="M529.39,245.4c-0.52,0.14-0.95,0.53-1.14,1.03"/>
						<path class="st55" d="M540.87,258.69h-1.76c-4.72,0-8.55-3.83-8.55-8.55v-14.8h18.87v14.8
							C549.42,254.86,545.59,258.69,540.87,258.69z"/>
						<path class="st55" d="M537.22,252.21c0.91,1.61,4.28,2.13,5.75,0H537.22z"/>
						<line class="st56" x1="538.9" y1="254.62" x2="541.08" y2="254.62"/>
						<path class="st55" d="M532,235.34c0.93,1.33-1.52,9.52-1.52,9.52s-2.99-5.69-2.82-7.57c0.32-3.55,3.33-4.63,3.33-4.63
							L532,235.34z"/>
						<path class="st55" d="M547.91,235.34c-0.93,1.33,1.52,9.52,1.52,9.52s2.99-5.69,2.82-7.57c-0.32-3.55-3.33-4.63-3.33-4.63
							L547.91,235.34z"/>
						<path class="st55" d="M530.35,232.66c0.64-2.44,2.08-4.37,6.66-4.51c4.58-0.14,8.86-4.56,14.99,4.47
							c-5.95,6.24-13.95,3.27-20.65,2.72"/>
						<path class="st55" d="M540.4,242.93c1.54,0.99,1.34,4.02,1.34,5.15c0,1.6-2.15,1.11-2.15,1.11"/>
						<circle class="st55" cx="544.64" cy="243.87" r="0.86"/>
						<circle class="st55" cx="535.24" cy="243.76" r="0.86"/>
						<path class="st55" d="M547.8,241.9c-0.6-0.69-1.52-1.15-2.58-1.2c-1.05-0.04-2.01,0.34-2.66,0.98"/>
						<path class="st55" d="M532.4,241.9c0.6-0.69,1.52-1.15,2.58-1.2c1.05-0.04,2.01,0.34,2.66,0.98"/>
						<polygon class="st55" points="539.99,264.23 536.92,266.21 536.92,295.56 539.99,295.56 543.06,295.56 543.06,266.21 						
							"/>
						<polygon class="st55" points="539.99,266.67 538.49,265.2 539.99,264.23 541.4,265.14 						"/>
						<polygon class="st55" points="541.33,295.56 540.37,266.14 539.95,265.56 539.53,266.14 538.57,295.56 						"/>
						<line class="st56" x1="531.49" y1="269.07" x2="531.49" y2="295.56"/>
						<line class="st56" x1="548.67" y1="269.07" x2="548.67" y2="295.56"/>
					</g>
					<g>
						<defs>
							<circle id="SVGID_55_" cx="540.24" cy="247.03" r="25.95"/>
						</defs>
						<clipPath id="SVGID_56_">
							<use xlink:href="#SVGID_55_"  style="overflow:visible;"/>
						</clipPath>
					</g>
				</g>
				<g>
					<g>
						<g>
							<defs>
								<circle id="SVGID_57_" cx="537.79" cy="244.58" r="25.95"/>
							</defs>
							<clipPath id="SVGID_58_">
								<use xlink:href="#SVGID_57_"  style="overflow:visible;"/>
							</clipPath>
						</g>
					</g>
					<g>
						<g>
							<defs>
								<circle id="SVGID_59_" cx="537.79" cy="244.58" r="25.95"/>
							</defs>
							<use xlink:href="#SVGID_59_"  style="overflow:visible;fill:#F6F2EF;"/>
							<clipPath id="SVGID_60_">
								<use xlink:href="#SVGID_59_"  style="overflow:visible;"/>
							</clipPath>
							<g class="st57">
								<path class="st58" d="M551.04,293.11h-26.99v-22.58c0-6.76,5.48-12.24,12.24-12.24h2.51c6.76,0,12.24,5.48,12.24,12.24
									V293.11z"/>
								<rect x="534.48" y="258.29" class="st59" width="6.14" height="34.82"/>
								<path class="st60" d="M537.83,261.78h-0.57c-1.54,0-2.78-1.25-2.78-2.78v-8.94c0-1.54,1.25-2.78,2.78-2.78h0.57
									c1.54,0,2.78,1.25,2.78,2.78V259C540.61,260.54,539.37,261.78,537.83,261.78z"/>
								<circle class="st60" cx="547.69" cy="244.18" r="2.21"/>
								<path class="st59" d="M548.14,242.96c0.52,0.14,0.95,0.53,1.14,1.03"/>
								<circle class="st60" cx="527.39" cy="244.18" r="2.21"/>
								<path class="st59" d="M526.95,242.96c-0.52,0.14-0.95,0.53-1.14,1.03"/>
								<path class="st60" d="M538.42,256.25h-1.76c-4.72,0-8.55-3.83-8.55-8.55v-14.8h18.87v14.8
									C546.98,252.42,543.15,256.25,538.42,256.25z"/>
								<path class="st59" d="M534.78,249.77c0.91,1.61,4.28,2.13,5.75,0H534.78z"/>
								<line class="st61" x1="536.45" y1="252.18" x2="538.64" y2="252.18"/>
								<path class="st58" d="M529.55,232.89c0.93,1.33-1.52,9.52-1.52,9.52s-2.99-5.69-2.82-7.57c0.32-3.55,3.33-4.63,3.33-4.63
									L529.55,232.89z"/>
								<path class="st58" d="M545.46,232.89c-0.93,1.33,1.52,9.52,1.52,9.52s2.99-5.69,2.82-7.57c-0.32-3.55-3.33-4.63-3.33-4.63
									L545.46,232.89z"/>
								<path class="st58" d="M527.91,230.22c0.64-2.44,2.08-4.37,6.66-4.51c4.58-0.14,8.86-4.56,14.99,4.47
									c-5.95,6.24-13.95,3.27-20.65,2.72"/>
								<path class="st60" d="M537.95,240.48c1.54,0.99,1.34,4.02,1.34,5.15c0,1.6-2.15,1.11-2.15,1.11"/>
								<g>
									<circle class="st58" cx="542.2" cy="241.42" r="0.86"/>
								</g>
								<g>
									<circle class="st58" cx="532.8" cy="241.32" r="0.86"/>
								</g>
								<path class="st60" d="M545.36,239.46c-0.6-0.69-1.52-1.15-2.58-1.2c-1.05-0.04-2.01,0.34-2.66,0.98"/>
								<path class="st60" d="M529.96,239.46c0.6-0.69,1.52-1.15,2.58-1.2c1.05-0.04,2.01,0.34,2.66,0.98"/>
								<polygon class="st59" points="537.54,261.78 534.48,263.77 534.48,293.11 537.54,293.11 540.61,293.11 540.61,263.77 
																	"/>
								<polygon class="st62" points="537.54,264.22 536.05,262.75 537.54,261.78 538.96,262.7 								"/>
								<polygon class="st62" points="538.88,293.11 537.92,263.7 537.5,263.11 537.08,263.7 536.13,293.11 								"/>
								<g>
									<line class="st61" x1="529.04" y1="266.63" x2="529.04" y2="293.11"/>
									<line class="st61" x1="546.22" y1="266.63" x2="546.22" y2="293.11"/>
								</g>
							</g>
						</g>
					</g>
					<g>
						<g>
							<defs>
								<circle id="SVGID_61_" cx="537.79" cy="244.58" r="25.95"/>
							</defs>
							<clipPath id="SVGID_62_">
								<use xlink:href="#SVGID_61_"  style="overflow:visible;"/>
							</clipPath>
						</g>
					</g>
				</g>
			</g>
		</g>
	</g>
	<g>
		<circle class="st2" cx="654.84" cy="179.64" r="32.15"/>
		<g>
			<g class="st4">
				<g>
					<defs>
						<circle id="SVGID_63_" cx="656.89" cy="181.88" r="25.91"/>
					</defs>
					<clipPath id="SVGID_64_">
						<use xlink:href="#SVGID_63_"  style="overflow:visible;"/>
					</clipPath>
				</g>
				<g>
					<defs>
						<circle id="SVGID_65_" cx="656.89" cy="181.88" r="25.91"/>
					</defs>
					<use xlink:href="#SVGID_65_"  style="overflow:visible;"/>
					<clipPath id="SVGID_66_">
						<use xlink:href="#SVGID_65_"  style="overflow:visible;"/>
					</clipPath>
					<path class="st63" d="M666.1,169.94h-17.28c-1.36,0-2.36,1.11-2.36,2.47l-0.11,18.36c0,1.36,1.11,2.47,2.47,2.47h17.28
						c1.36,0,2.47-1.11,2.47-2.47l0.11-18.36C668.67,171.05,667.46,169.94,666.1,169.94z"/>
					<path class="st63" d="M656.74,183.62h1.66c5.71,0,10.33-4.63,10.33-10.33v0c0-5.71-4.63-10.33-10.33-10.33h-1.66
						c-5.71,0-10.33,4.63-10.33,10.33v0C646.4,178.99,651.03,183.62,656.74,183.62z"/>
					<path class="st64" d="M671.05,213.73h-26.97v-5.84c0-7.45,6.04-13.49,13.49-13.49l0,0c7.45,0,13.49,6.04,13.49,13.49V213.73z"
						/>
					<line class="st65" x1="657.57" y1="197.89" x2="657.57" y2="213.73"/>
					<path class="st64" d="M654.47,194.4c-0.56,0.36-1.06,2.5-1.06,4.22c0.25,0.25,4.15-0.73,4.15-0.73L654.47,194.4z"/>
					<path class="st64" d="M660.66,194.4c0.56,0.36,1.06,2.5,1.06,4.22c-0.25,0.25-4.15-0.73-4.15-0.73L660.66,194.4z"/>
					<path class="st64" d="M657.57,197.89L657.57,197.89c-1.69,0-3.07-1.37-3.07-3.07v-8.36c0-1.69,1.37-3.07,3.07-3.07l0,0
						c1.69,0,3.07,1.37,3.07,3.07v8.36C660.63,196.52,659.26,197.89,657.57,197.89z"/>
					<circle class="st64" cx="667.06" cy="180.03" r="2.21"/>
					<path class="st64" d="M667.51,178.81c0.52,0.14,0.95,0.53,1.14,1.03"/>
					<circle class="st64" cx="648.18" cy="180.03" r="2.21"/>
					<path class="st64" d="M647.8,178.84c-0.52,0.14-0.95,0.53-1.14,1.03"/>
					<path class="st64" d="M657.57,192.36L657.57,192.36c-5.24,0-9.5-4.25-9.5-9.5v-8.7c0-3.21,2.6-5.82,5.82-5.82h8.61
						c2.52,0,4.56,2.04,4.56,4.56v9.95C667.06,188.11,662.81,192.36,657.57,192.36z"/>
					<path class="st64" d="M654.47,185.73c1.01,2.52,4.77,3.33,6.4,0C658.76,186.4,656.62,186.35,654.47,185.73z"/>
					<line class="st65" x1="656.47" y1="188.76" x2="658.66" y2="188.76"/>
					<path class="st64" d="M658,181c0.26,0.82,1.98,0.25,1.92,1.88c-0.03,0.72-1.95,0.52-1.95,0.52"/>
					<circle class="st66" cx="662.11" cy="178.35" r="0.86"/>
					<circle class="st66" cx="653.04" cy="178.25" r="0.86"/>
					<path class="st64" d="M664.69,177.14c-0.54-0.69-1.38-1.15-2.34-1.19c-0.96-0.04-1.83,0.34-2.42,0.98"/>
					<path class="st64" d="M650.68,177.14c0.54-0.69,1.38-1.15,2.34-1.19c0.96-0.04,1.83,0.34,2.42,0.98"/>
					<path class="st63" d="M657.8,169.03c0.34,2.56,4.49,6.7,9.91,6.7l-0.32-7.07l-13.31-4.7L657.8,169.03z"/>
					<path class="st63" d="M657.55,169.03c-0.35,2.56-4.82,6.7-10.37,6.7l1.52-8.47l12.67-3.31L657.55,169.03z"/>
				</g>
				<g>
					<defs>
						<circle id="SVGID_67_" cx="656.89" cy="181.88" r="25.91"/>
					</defs>
					<clipPath id="SVGID_68_">
						<use xlink:href="#SVGID_67_"  style="overflow:visible;"/>
					</clipPath>
				</g>
			</g>
			<g>
				<g>
					<g>
						<defs>
							<circle id="SVGID_69_" cx="654.45" cy="179.44" r="25.91"/>
						</defs>
						<clipPath id="SVGID_70_">
							<use xlink:href="#SVGID_69_"  style="overflow:visible;"/>
						</clipPath>
					</g>
				</g>
				<g>
					<g>
						<defs>
							<circle id="SVGID_71_" cx="654.45" cy="179.44" r="25.91"/>
						</defs>
						<use xlink:href="#SVGID_71_"  style="overflow:visible;fill:#F6F2EF;"/>
						<clipPath id="SVGID_72_">
							<use xlink:href="#SVGID_71_"  style="overflow:visible;"/>
						</clipPath>
						<g class="st67">
							<path class="st53" d="M663.65,167.5h-17.28c-1.36,0-2.36,1.11-2.36,2.47l-0.11,18.36c0,1.36,1.11,2.47,2.47,2.47h17.28
								c1.36,0,2.47-1.11,2.47-2.47l0.11-18.36C666.23,168.6,665.02,167.5,663.65,167.5z"/>
							<path class="st53" d="M654.29,181.17h1.66c5.71,0,10.33-4.63,10.33-10.33v0c0-5.71-4.63-10.33-10.33-10.33h-1.66
								c-5.71,0-10.33,4.63-10.33,10.33v0C643.96,176.55,648.59,181.17,654.29,181.17z"/>
							<g>
								<path class="st23" d="M668.61,211.29h-26.97v-5.84c0-7.45,6.04-13.49,13.49-13.49l0,0c7.45,0,13.49,6.04,13.49,13.49V211.29
									z"/>
								<line class="st38" x1="655.12" y1="195.45" x2="655.12" y2="211.29"/>
								<path class="st44" d="M652.03,191.96c-0.56,0.36-1.06,2.5-1.06,4.22c0.25,0.25,4.15-0.73,4.15-0.73L652.03,191.96z"/>
								<path class="st44" d="M658.21,191.96c0.56,0.36,1.06,2.5,1.06,4.22c-0.25,0.25-4.15-0.73-4.15-0.73L658.21,191.96z"/>
								<path class="st68" d="M655.12,195.45L655.12,195.45c-1.69,0-3.07-1.37-3.07-3.07v-8.36c0-1.69,1.37-3.07,3.07-3.07l0,0
									c1.69,0,3.07,1.37,3.07,3.07v8.36C658.19,194.08,656.82,195.45,655.12,195.45z"/>
								<circle class="st68" cx="664.62" cy="177.59" r="2.21"/>
								<path class="st27" d="M665.07,176.37c0.52,0.14,0.95,0.53,1.14,1.03"/>
								<circle class="st68" cx="645.73" cy="177.59" r="2.21"/>
								<path class="st27" d="M645.36,176.4c-0.52,0.14-0.95,0.53-1.14,1.03"/>
								<path class="st68" d="M655.12,189.92L655.12,189.92c-5.24,0-9.5-4.25-9.5-9.5v-8.7c0-3.21,2.6-5.82,5.82-5.82h8.61
									c2.52,0,4.56,2.04,4.56,4.56v9.95C664.62,185.67,660.37,189.92,655.12,189.92z"/>
								<g>
									<path class="st27" d="M652.03,183.29c1.01,2.52,4.77,3.33,6.4,0C656.31,183.96,654.18,183.91,652.03,183.29z"/>
								</g>
								<line class="st12" x1="654.03" y1="186.32" x2="656.22" y2="186.32"/>
								<path class="st68" d="M655.55,178.56c0.26,0.82,1.98,0.25,1.92,1.88c-0.03,0.72-1.95,0.52-1.95,0.52"/>
								<g>
									<circle class="st28" cx="659.66" cy="175.91" r="0.86"/>
								</g>
								<g>
									<circle class="st28" cx="650.59" cy="175.8" r="0.86"/>
								</g>
								<path class="st68" d="M662.24,174.7c-0.54-0.69-1.38-1.15-2.34-1.19c-0.96-0.04-1.83,0.34-2.42,0.98"/>
								<path class="st68" d="M648.23,174.7c0.54-0.69,1.38-1.15,2.34-1.19c0.96-0.04,1.83,0.34,2.42,0.98"/>
							</g>
							<path class="st53" d="M655.36,166.58c0.34,2.56,4.49,6.7,9.91,6.7l-0.32-7.07l-13.31-4.7L655.36,166.58z"/>
							<path class="st53" d="M655.11,166.58c-0.35,2.56-4.82,6.7-10.37,6.7l1.52-8.47l12.67-3.31L655.11,166.58z"/>
						</g>
					</g>
				</g>
				<g>
					<g>
						<defs>
							<circle id="SVGID_73_" cx="654.45" cy="179.44" r="25.91"/>
						</defs>
						<clipPath id="SVGID_74_">
							<use xlink:href="#SVGID_73_"  style="overflow:visible;"/>
						</clipPath>
					</g>
				</g>
			</g>
		</g>
	</g>
	<g>
		<circle class="st2" cx="151.79" cy="201.58" r="33.2"/>
		<g>
			<g class="st4">
				<g>
					<defs>
						<circle id="SVGID_75_" cx="154.24" cy="204.03" r="26.75"/>
					</defs>
					<clipPath id="SVGID_76_">
						<use xlink:href="#SVGID_75_"  style="overflow:visible;"/>
					</clipPath>
				</g>
				<g>
					<defs>
						<circle id="SVGID_77_" cx="154.24" cy="204.03" r="26.75"/>
					</defs>
					<use xlink:href="#SVGID_77_"  style="overflow:visible;"/>
					<clipPath id="SVGID_78_">
						<use xlink:href="#SVGID_77_"  style="overflow:visible;"/>
					</clipPath>
					<path class="st69" d="M167.9,254.07h-27.83v-23.32c0-6.95,5.64-12.59,12.59-12.59h2.66c6.95,0,12.59,5.64,12.59,12.59V254.07z"
						/>
					<rect x="150.82" y="218.16" class="st69" width="6.33" height="35.9"/>
					<path class="st69" d="M153.98,221.76L153.98,221.76c-1.75,0-3.16-1.42-3.16-3.16v-8.63c0-1.75,1.42-3.16,3.16-3.16h0
						c1.75,0,3.16,1.42,3.16,3.16v8.63C157.14,220.35,155.73,221.76,153.98,221.76z"/>
					<circle class="st69" cx="164.45" cy="203.61" r="2.28"/>
					<path class="st69" d="M164.91,202.35c0.54,0.15,0.98,0.55,1.18,1.06"/>
					<circle class="st69" cx="143.52" cy="203.61" r="2.28"/>
					<path class="st69" d="M143.05,202.35c-0.54,0.15-0.98,0.55-1.18,1.06"/>
					<path class="st69" d="M153.98,216.06L153.98,216.06c-5.37,0-9.73-4.35-9.73-9.73v-14.36h19.45v14.36
						C163.71,211.7,159.35,216.06,153.98,216.06z"/>
					<path class="st69" d="M151.13,209.38c0.94,1.66,4.42,2.19,5.93,0H151.13z"/>
					<line class="st70" x1="152.85" y1="211.86" x2="155.11" y2="211.86"/>
					<path class="st69" d="M145.74,191.98c0.96,1.37-1.56,9.82-1.56,9.82s-3.08-5.87-2.9-7.81c0.33-3.66,3.43-4.77,3.43-4.77
						L145.74,191.98z"/>
					<path class="st69" d="M162.14,191.98c-0.96,1.37,1.56,9.82,1.56,9.82s3.08-5.87,2.9-7.81c-0.33-3.66-3.43-4.77-3.43-4.77
						L162.14,191.98z"/>
					<path class="st69" d="M144.04,189.21c0.66-2.51,2.14-4.5,6.87-4.65c4.73-0.15,9.14-4.7,15.45,4.61
						c-6.13,6.43-14.38,3.37-21.29,2.81"/>
					<path class="st69" d="M154.4,199.8c1.58,1.02,1.38,4.14,1.38,5.31c0,1.65-2.22,1.14-2.22,1.14"/>
					<circle class="st69" cx="158.78" cy="200.77" r="0.89"/>
					<circle class="st69" cx="149.08" cy="200.66" r="0.89"/>
					<path class="st69" d="M162.04,198.74c-0.62-0.71-1.57-1.19-2.66-1.23c-1.09-0.04-2.08,0.35-2.75,1.01"/>
					<path class="st69" d="M146.16,198.74c0.62-0.71,1.57-1.19,2.66-1.23c1.09-0.04,2.08,0.35,2.75,1.01"/>
					<polygon class="st69" points="153.98,221.76 150.82,223.81 150.82,254.07 153.98,254.07 157.14,254.07 157.14,223.81 					"/>
					<polygon class="st69" points="153.98,224.28 152.44,222.76 153.98,221.76 155.44,222.71 					"/>
					<polygon class="st69" points="155.36,254.07 154.37,223.73 153.94,223.13 153.51,223.73 152.52,254.07 					"/>
					<line class="st70" x1="145.22" y1="226.76" x2="145.22" y2="254.07"/>
					<line class="st70" x1="162.93" y1="226.76" x2="162.93" y2="254.07"/>
				</g>
				<g>
					<defs>
						<circle id="SVGID_79_" cx="154.24" cy="204.03" r="26.75"/>
					</defs>
					<clipPath id="SVGID_80_">
						<use xlink:href="#SVGID_79_"  style="overflow:visible;"/>
					</clipPath>
				</g>
			</g>
			<g>
				<g>
					<g>
						<defs>
							<circle id="SVGID_81_" cx="151.79" cy="201.58" r="26.75"/>
						</defs>
						<clipPath id="SVGID_82_">
							<use xlink:href="#SVGID_81_"  style="overflow:visible;"/>
						</clipPath>
					</g>
				</g>
				<g>
					<g>
						<defs>
							<circle id="SVGID_83_" cx="151.79" cy="201.58" r="26.75"/>
						</defs>
						<use xlink:href="#SVGID_83_"  style="overflow:visible;fill:#F6F2EF;"/>
						<clipPath id="SVGID_84_">
							<use xlink:href="#SVGID_83_"  style="overflow:visible;"/>
						</clipPath>
						<g class="st71">
							<path class="st58" d="M165.45,251.62h-27.83v-23.32c0-6.95,5.64-12.59,12.59-12.59h2.66c6.95,0,12.59,5.64,12.59,12.59
								V251.62z"/>
							<rect x="148.37" y="215.72" class="st59" width="6.33" height="35.9"/>
							<path class="st72" d="M151.54,219.32L151.54,219.32c-1.75,0-3.16-1.42-3.16-3.16v-8.63c0-1.75,1.42-3.16,3.16-3.16l0,0
								c1.75,0,3.16,1.42,3.16,3.16v8.63C154.7,217.9,153.28,219.32,151.54,219.32z"/>
							<circle class="st72" cx="162" cy="201.16" r="2.28"/>
							<path class="st59" d="M162.46,199.91c0.54,0.15,0.98,0.55,1.18,1.06"/>
							<circle class="st72" cx="141.07" cy="201.16" r="2.28"/>
							<path class="st59" d="M140.61,199.91c-0.54,0.15-0.98,0.55-1.18,1.06"/>
							<path class="st72" d="M151.54,213.61L151.54,213.61c-5.37,0-9.73-4.35-9.73-9.73v-14.36h19.45v14.36
								C161.26,209.26,156.91,213.61,151.54,213.61z"/>
							<path class="st59" d="M148.69,206.93c0.94,1.66,4.42,2.19,5.93,0H148.69z"/>
							<line class="st61" x1="150.41" y1="209.41" x2="152.66" y2="209.41"/>
							<path class="st62" d="M143.3,189.53c0.96,1.37-1.56,9.82-1.56,9.82s-3.08-5.87-2.9-7.81c0.33-3.66,3.43-4.77,3.43-4.77
								L143.3,189.53z"/>
							<path class="st62" d="M159.7,189.53c-0.96,1.37,1.56,9.82,1.56,9.82s3.08-5.87,2.9-7.81c-0.33-3.66-3.43-4.77-3.43-4.77
								L159.7,189.53z"/>
							<path class="st62" d="M141.6,186.77c0.66-2.51,2.14-4.5,6.87-4.65c4.73-0.15,9.14-4.7,15.45,4.61
								c-6.13,6.43-14.38,3.37-21.29,2.81"/>
							<path class="st72" d="M151.96,197.36c1.58,1.02,1.38,4.14,1.38,5.31c0,1.65-2.22,1.14-2.22,1.14"/>
							<g>
								<circle class="st58" cx="156.33" cy="198.33" r="0.89"/>
							</g>
							<g>
								<circle class="st58" cx="146.64" cy="198.22" r="0.89"/>
							</g>
							<path class="st72" d="M159.59,196.3c-0.62-0.71-1.57-1.19-2.66-1.23c-1.09-0.04-2.08,0.35-2.75,1.01"/>
							<path class="st72" d="M143.72,196.3c0.62-0.71,1.57-1.19,2.66-1.23c1.09-0.04,2.08,0.35,2.75,1.01"/>
							<polygon class="st59" points="151.54,219.32 148.37,221.37 148.37,251.62 151.54,251.62 154.7,251.62 154.7,221.37 							
								"/>
							<polygon class="st73" points="151.54,221.83 149.99,220.32 151.54,219.32 153,220.26 							"/>
							<polygon class="st73" points="152.92,251.62 151.93,221.29 151.5,220.69 151.06,221.29 150.07,251.62 							"/>
							<g>
								<line class="st61" x1="142.77" y1="224.31" x2="142.77" y2="251.62"/>
								<line class="st61" x1="160.48" y1="224.31" x2="160.48" y2="251.62"/>
							</g>
						</g>
					</g>
				</g>
				<g>
					<g>
						<defs>
							<circle id="SVGID_85_" cx="151.79" cy="201.58" r="26.75"/>
						</defs>
						<clipPath id="SVGID_86_">
							<use xlink:href="#SVGID_85_"  style="overflow:visible;"/>
						</clipPath>
					</g>
				</g>
			</g>
		</g>
	</g>
	<g>
		<circle class="st2" cx="54.4" cy="134.57" r="33.6"/>
		<g>
			<g class="st4">
				<g>
					<defs>
						<circle id="SVGID_87_" cx="57.09" cy="136.8" r="27.07"/>
					</defs>
					<clipPath id="SVGID_88_">
						<use xlink:href="#SVGID_87_"  style="overflow:visible;"/>
					</clipPath>
				</g>
				<g>
					<defs>
						<circle id="SVGID_89_" cx="57.09" cy="136.8" r="27.07"/>
					</defs>
					<use xlink:href="#SVGID_89_"  style="overflow:visible;"/>
					<clipPath id="SVGID_90_">
						<use xlink:href="#SVGID_89_"  style="overflow:visible;"/>
					</clipPath>
					<path class="st74" d="M66.71,124.33H48.65c-1.42,0-2.47,1.16-2.47,2.58l-0.11,19.18c0,1.42,1.16,2.58,2.58,2.58h18.06
						c1.42,0,2.58-1.16,2.58-2.58l0.11-19.18C69.4,125.49,68.13,124.33,66.71,124.33z"/>
					<path class="st74" d="M56.93,138.62h1.73c5.96,0,10.8-4.83,10.8-10.8v0c0-5.96-4.83-10.8-10.8-10.8h-1.73
						c-5.96,0-10.8,4.83-10.8,10.8v0C46.13,133.79,50.97,138.62,56.93,138.62z"/>
					<path class="st74" d="M71.89,170.09H43.7v-6.11c0-7.78,6.31-14.09,14.09-14.09h0c7.78,0,14.09,6.31,14.09,14.09V170.09z"/>
					<line class="st75" x1="57.8" y1="153.54" x2="57.8" y2="170.09"/>
					<path class="st74" d="M54.57,149.89c-0.59,0.37-1.11,2.62-1.11,4.41c0.26,0.26,4.34-0.77,4.34-0.77L54.57,149.89z"/>
					<path class="st74" d="M61.03,149.89c0.59,0.37,1.11,2.62,1.11,4.41c-0.26,0.26-4.34-0.77-4.34-0.77L61.03,149.89z"/>
					<path class="st74" d="M57.8,153.54L57.8,153.54c-1.77,0-3.2-1.43-3.2-3.2v-8.74c0-1.77,1.43-3.2,3.2-3.2h0
						c1.77,0,3.2,1.43,3.2,3.2v8.74C61,152.1,59.56,153.54,57.8,153.54z"/>
					<circle class="st74" cx="67.72" cy="134.87" r="2.31"/>
					<path class="st74" d="M68.19,133.6c0.55,0.15,0.99,0.55,1.2,1.08"/>
					<circle class="st74" cx="47.98" cy="134.87" r="2.31"/>
					<path class="st74" d="M47.59,133.63c-0.55,0.15-0.99,0.55-1.2,1.08"/>
					<path class="st74" d="M57.8,147.76L57.8,147.76c-5.48,0-9.92-4.44-9.92-9.92v-9.09c0-3.36,2.72-6.08,6.08-6.08h9
						c2.63,0,4.77,2.14,4.77,4.77v10.4C67.72,143.32,63.28,147.76,57.8,147.76z"/>
					<path class="st74" d="M54.57,140.83c1.06,2.64,4.98,3.48,6.69,0C59.04,141.53,56.81,141.48,54.57,140.83z"/>
					<line class="st75" x1="56.65" y1="144" x2="58.94" y2="144"/>
					<path class="st74" d="M58.24,135.89c0.28,0.86,2.07,0.26,2.01,1.96c-0.03,0.76-2.03,0.54-2.03,0.54"/>
					<circle class="st74" cx="62.54" cy="133.12" r="0.9"/>
					<circle class="st74" cx="53.06" cy="133.01" r="0.9"/>
					<path class="st74" d="M65.24,131.85c-0.57-0.72-1.45-1.2-2.45-1.25c-1-0.04-1.91,0.36-2.53,1.03"/>
					<path class="st74" d="M50.6,131.85c0.57-0.72,1.45-1.2,2.45-1.25c1-0.04,1.91,0.36,2.53,1.03"/>
					<path class="st74" d="M58.04,123.37c0.36,2.67,4.7,7,10.35,7l-0.34-7.39l-13.91-4.91L58.04,123.37z"/>
					<path class="st74" d="M57.78,123.37c-0.37,2.67-5.04,7-10.83,7l1.59-8.85l13.24-3.45L57.78,123.37z"/>
				</g>
				<g>
					<defs>
						<circle id="SVGID_91_" cx="57.09" cy="136.8" r="27.07"/>
					</defs>
					<clipPath id="SVGID_92_">
						<use xlink:href="#SVGID_91_"  style="overflow:visible;"/>
					</clipPath>
				</g>
			</g>
			<g>
				<g>
					<g>
						<defs>
							<circle id="SVGID_93_" cx="54.65" cy="134.36" r="27.07"/>
						</defs>
						<clipPath id="SVGID_94_">
							<use xlink:href="#SVGID_93_"  style="overflow:visible;"/>
						</clipPath>
					</g>
				</g>
				<g>
					<g>
						<defs>
							<circle id="SVGID_95_" cx="54.65" cy="134.36" r="27.07"/>
						</defs>
						<use xlink:href="#SVGID_95_"  style="overflow:visible;fill:#F6F2EF;"/>
						<clipPath id="SVGID_96_">
							<use xlink:href="#SVGID_95_"  style="overflow:visible;"/>
						</clipPath>
						<g class="st76">
							<path class="st58" d="M64.27,121.89H46.21c-1.42,0-2.47,1.16-2.47,2.58l-0.11,19.18c0,1.42,1.16,2.58,2.58,2.58h18.06
								c1.42,0,2.58-1.16,2.58-2.58l0.11-19.18C66.96,123.04,65.69,121.89,64.27,121.89z"/>
							<path class="st58" d="M54.49,136.18h1.73c5.96,0,10.8-4.83,10.8-10.8v0c0-5.96-4.83-10.8-10.8-10.8h-1.73
								c-5.96,0-10.8,4.83-10.8,10.8v0C43.69,131.34,48.52,136.18,54.49,136.18z"/>
							<g>
								<path class="st77" d="M69.45,167.65H41.26v-6.11c0-7.78,6.31-14.09,14.09-14.09h0c7.78,0,14.09,6.31,14.09,14.09V167.65z"/>
								<line class="st61" x1="55.35" y1="151.1" x2="55.35" y2="167.65"/>
								<path class="st78" d="M52.12,147.45c-0.59,0.37-1.11,2.62-1.11,4.41c0.26,0.26,4.34-0.77,4.34-0.77L52.12,147.45z"/>
								<path class="st78" d="M58.58,147.45c0.59,0.37,1.11,2.62,1.11,4.41c-0.26,0.26-4.34-0.77-4.34-0.77L58.58,147.45z"/>
								<path class="st72" d="M55.35,151.1L55.35,151.1c-1.77,0-3.2-1.43-3.2-3.2v-8.74c0-1.77,1.43-3.2,3.2-3.2h0
									c1.77,0,3.2,1.43,3.2,3.2v8.74C58.56,149.66,57.12,151.1,55.35,151.1z"/>
								<circle class="st72" cx="65.28" cy="132.43" r="2.31"/>
								<path class="st59" d="M65.75,131.16c0.55,0.15,0.99,0.55,1.2,1.08"/>
								<circle class="st72" cx="45.54" cy="132.43" r="2.31"/>
								<path class="st59" d="M45.15,131.19c-0.55,0.15-0.99,0.55-1.2,1.08"/>
								<path class="st72" d="M55.35,145.32L55.35,145.32c-5.48,0-9.92-4.44-9.92-9.92v-9.09c0-3.36,2.72-6.08,6.08-6.08h9
									c2.63,0,4.77,2.14,4.77,4.77v10.4C65.28,140.88,60.83,145.32,55.35,145.32z"/>
								<g>
									<path class="st59" d="M52.12,138.38c1.06,2.64,4.98,3.48,6.69,0C56.6,139.09,54.37,139.04,52.12,138.38z"/>
								</g>
								<line class="st61" x1="54.21" y1="141.56" x2="56.49" y2="141.56"/>
								<path class="st72" d="M55.8,133.45c0.28,0.86,2.07,0.26,2.01,1.96c-0.03,0.76-2.03,0.54-2.03,0.54"/>
								<g>
									<circle class="st58" cx="60.1" cy="130.68" r="0.9"/>
								</g>
								<g>
									<circle class="st58" cx="50.62" cy="130.57" r="0.9"/>
								</g>
								<path class="st72" d="M62.79,129.41c-0.57-0.72-1.45-1.2-2.45-1.25c-1-0.04-1.91,0.36-2.53,1.03"/>
								<path class="st72" d="M48.15,129.41c0.57-0.72,1.45-1.2,2.45-1.25c1-0.04,1.91,0.36,2.53,1.03"/>
							</g>
							<path class="st58" d="M55.6,120.93c0.36,2.67,4.7,7,10.35,7l-0.34-7.39l-13.91-4.91L55.6,120.93z"/>
							<path class="st58" d="M55.34,120.93c-0.37,2.67-5.04,7-10.83,7l1.59-8.85l13.24-3.45L55.34,120.93z"/>
						</g>
					</g>
				</g>
				<g>
					<g>
						<defs>
							<circle id="SVGID_97_" cx="54.65" cy="134.36" r="27.07"/>
						</defs>
						<clipPath id="SVGID_98_">
							<use xlink:href="#SVGID_97_"  style="overflow:visible;"/>
						</clipPath>
					</g>
				</g>
			</g>
		</g>
	</g>
</g>
</svg>
